<?xml version="1.0" encoding="utf-8"?>
<!-- Generator: Adobe Illustrator 24.2.0, SVG Export Plug-In . SVG Version: 6.00 Build 0)  -->
<svg version="1.1" id="_x3C_Layer_x3E_" xmlns="http://www.w3.org/2000/svg" xmlns:xlink="http://www.w3.org/1999/xlink" x="0px"
	 y="0px" viewBox="0 0 3024 1680" style="enable-background:new 0 0 3024 1680;" xml:space="preserve">
<style type="text/css">
	.st0{display:none;}
	.st1{display:inline;fill:#F5F5F5;}
	.st2{display:inline;fill:#FFBC59;}
	.st3{display:inline;fill:url(#SVGID_1_);}
	.st4{display:inline;}
	.st5{fill:#FFFFFF;}
	.st6{display:inline;fill:#FFFFFF;}
	.st7{fill:#313657;}
	.st8{fill:#546597;}
	.st9{display:inline;fill:url(#SVGID_2_);}
	.st10{opacity:0.25;fill:#FFDF42;}
	.st11{fill:#AE69D1;}
	.st12{fill:#E2BAF8;}
	.st13{opacity:0.8;}
	.st14{fill:#FF3A3D;}
	.st15{opacity:0.7;}
	.st16{fill:#9AD297;}
	.st17{fill:#72B370;}
	.st18{fill:#232E4F;}
	.st19{fill:#FFBC59;}
	.st20{fill:#FF8B00;}
	.st21{fill:#008D68;}
	.st22{fill:#00A982;}
	.st23{fill:#BDE4F0;}
	.st24{fill:#7B27AB;}
	.st25{fill:#BF0101;}
	.st26{fill:#973342;}
	.st27{fill:#D9E3E9;}
	.st28{fill:#EE9759;}
	.st29{fill:#E18340;}
	.st30{fill:#3A384C;}
	.st31{fill:#F0F0F0;}
	.st32{fill:#163F9A;}
</style>
<g class="st0">
	<rect class="st1" width="3024" height="1680"/>
	<path class="st2" d="M3024,0v405.12c-222.13-107.22-388.42-12.87-579.9-4.44c-85.88,3.8-176.8-9.71-280.12-66.43
		c-362.41-198.95-440.19,54.6-700.36,42.34c-160.61-7.56-264.83-69.69-359.02-127.65c-154.16-94.85-281.3-178.52-584.4,6.75
		c0,0,0,0.03-0.03,0C252.64,419.23,91.26,446.61,0,437.94V0H3024z"/>
	<linearGradient id="SVGID_1_" gradientUnits="userSpaceOnUse" x1="0" y1="248.7027" x2="3024" y2="248.7027">
		<stop  offset="5.181000e-03" style="stop-color:#7B27AB"/>
		<stop  offset="1" style="stop-color:#AE69D1"/>
	</linearGradient>
	<path class="st3" d="M3024,0v443.39c-90.85,32.46-310.23,95.26-470.23,14.51c-33.23-16.77-70.12-36.39-109.67-57.22
		c-206.44-108.8-485.72-251.39-697.57-201.87c-252.44,59.04-348.1-96.37-588.67,24.96c-18.18,9.17-35.88,17.54-53.26,25.17
		c-199.68,87.76-351.39,75.87-584.4,6.75h-0.03c-14.92-4.4-30.21-9.07-45.86-13.98C236.81,167.43,93.61,184.9,0,243.06V0H3024z"/>
	<g class="st4">
		<path class="st5" d="M1811.89,95.77v28.21h-4.59v-12.01h-14.87v12.01h-4.59V95.77h4.59v11.97h14.87V95.77H1811.89z"/>
		<path class="st5" d="M1826.82,104.11c5.44,0,10.48,3.51,10.48,10.19c0,6.69-5.04,10.2-10.48,10.2c-5.4,0-10.48-3.51-10.48-10.2
			C1816.34,107.62,1821.42,104.11,1826.82,104.11z M1826.82,108.06c-3.63,0-6.12,2.46-6.12,6.25s2.5,6.25,6.12,6.25
			c3.59,0,6.09-2.46,6.09-6.25S1830.41,108.06,1826.82,108.06z"/>
		<path class="st5" d="M1841.5,123.98v-19.34h3.83v2.42c1.05-1.17,3.3-2.94,6.45-2.94c2.9,0,4.92,1.21,6.04,3.1
			c1.69-1.69,3.95-3.1,6.77-3.1c5.12,0,7.33,3.79,7.33,7.78v12.09h-4.31v-11.97c0-2.5-1.49-4.07-3.83-4.07
			c-2.14,0-3.79,1.41-4.79,2.62c0.04,0.44,0.08,0.89,0.08,1.33v12.09h-4.31v-11.97c0-2.5-1.49-4.07-3.83-4.07s-4.11,1.69-5.12,2.98
			v13.06H1841.5z"/>
		<path class="st5" d="M1885.73,104.11c7.7,0,10.36,6.2,9.11,11.81h-14.55c0.48,3.46,3.87,4.92,7.42,4.92
			c2.34,0,4.47-0.56,6.13-1.37v3.71c-1.77,0.85-4.23,1.33-6.93,1.33c-5.92,0-10.96-3.38-10.96-10.2
			C1875.94,107.3,1881.26,104.11,1885.73,104.11z M1885.93,107.7c-2.9,0-5.52,1.73-5.68,5h10.72
			C1891.21,111,1890.16,107.7,1885.93,107.7z"/>
	</g>
	<g class="st4">
		<path class="st5" d="M1980.78,123.98l11.93-28.21h5.04l11.89,28.21h-4.84l-2.5-6.08h-14.15l-2.5,6.08H1980.78z M1989.73,113.87
			h10.96l-4.96-12.05c-0.16-0.44-0.32-0.89-0.52-1.57c-0.2,0.68-0.36,1.13-0.52,1.57L1989.73,113.87z"/>
		<path class="st5" d="M2016.9,95.77v11.36c1.33-1.49,3.59-3.02,6.97-3.02c5.8,0,9.59,4.63,9.59,10.19c0,5.56-3.79,10.2-9.59,10.2
			c-3.63,0-5.92-1.69-7.46-3.59v3.06h-3.83V95.77H2016.9z M2023.07,107.9c-2.98,0-5.24,1.93-6.17,4.03v4.71
			c0.93,2.13,3.18,4.07,6.17,4.07c3.51,0,6-2.62,6-6.41S2026.58,107.9,2023.07,107.9z"/>
		<path class="st5" d="M2046.94,104.11c5.44,0,10.48,3.51,10.48,10.19c0,6.69-5.04,10.2-10.48,10.2c-5.4,0-10.48-3.51-10.48-10.2
			C2036.46,107.62,2041.54,104.11,2046.94,104.11z M2046.94,108.06c-3.63,0-6.13,2.46-6.13,6.25s2.5,6.25,6.13,6.25
			c3.59,0,6.08-2.46,6.08-6.25S2050.53,108.06,2046.94,108.06z"/>
		<path class="st5" d="M2079.96,104.64v19.34h-3.83v-2.66c-1.41,1.69-3.79,3.18-6.73,3.18c-5.12,0-7.98-3.3-7.98-7.9v-11.97h4.31
			v11.4c0,3.14,1.65,4.63,4.51,4.63c2.46,0,4.31-1.65,5.4-3.22v-12.81H2079.96z"/>
		<path class="st5" d="M2091.05,97.75v6.89h7.01v3.79h-7.01v8.87c0,2.54,1.17,3.38,3.67,3.38c1.41,0,2.7-0.28,3.91-0.77v3.71
			c-1.45,0.52-3.3,0.85-5.2,0.85c-3.75,0-6.65-1.85-6.65-6.37v-9.67h-3.47v-3.79h3.47v-5.84L2091.05,97.75z"/>
	</g>
	<g class="st4">
		<path class="st5" d="M2195.29,95.25c3.22,0,6.53,0.81,8.83,2.14v4.39c-2.3-1.53-5.44-2.38-8.46-2.34c-3.42,0-5.6,1.01-5.6,3.43
			c0,6.08,16.12,3.63,16.12,13.7c0,5.92-5.04,7.98-10.68,7.94c-3.79,0-7.21-0.89-10-2.46v-4.51c3.06,1.97,6.45,2.78,9.67,2.78
			c3.63,0,6.33-0.85,6.33-3.51c0-6.53-16.12-3.87-16.12-13.86C2185.38,97.75,2189.97,95.25,2195.29,95.25z"/>
		<path class="st5" d="M2218.67,104.11c7.7,0,10.36,6.2,9.11,11.81h-14.55c0.48,3.46,3.87,4.92,7.41,4.92
			c2.34,0,4.47-0.56,6.13-1.37v3.71c-1.77,0.85-4.23,1.33-6.93,1.33c-5.93,0-10.96-3.38-10.96-10.2
			C2208.88,107.3,2214.2,104.11,2218.67,104.11z M2218.88,107.7c-2.9,0-5.52,1.73-5.68,5h10.72
			C2224.16,111,2223.11,107.7,2218.88,107.7z"/>
		<path class="st5" d="M2244.16,104.23v4.23c-3.46-0.48-6.49,1.05-7.66,3.79v11.73h-4.31v-19.34h3.83v3.18
			C2237.51,105.44,2240.65,103.91,2244.16,104.23z"/>
		<path class="st5" d="M2266.33,104.64l-8.3,19.34h-4.55l-8.26-19.34h4.67l5.88,14.67l5.84-14.67H2266.33z"/>
		<path class="st5" d="M2271.74,100.93c-1.41,0-2.66-0.81-2.66-2.58c0-1.69,1.25-2.54,2.66-2.54c1.41,0,2.62,0.85,2.62,2.54
			C2274.36,100.12,2273.15,100.93,2271.74,100.93z M2269.56,123.98v-19.34h4.31v19.34H2269.56z"/>
		<path class="st5" d="M2288.83,104.11c2.18,0,4.27,0.48,5.97,1.49v3.95c-1.41-1.01-3.39-1.61-5.36-1.61
			c-3.43,0-6.89,1.81-6.89,6.37c0,4.39,3.35,6.37,6.81,6.37c2.05,0,4.11-0.6,5.64-1.49v3.99c-1.85,0.89-3.95,1.33-6.41,1.33
			c-5.16,0-10.44-3.14-10.44-10.03C2278.15,107.26,2283.67,104.11,2288.83,104.11z"/>
		<path class="st5" d="M2307.58,104.11c7.7,0,10.36,6.2,9.11,11.81h-14.55c0.49,3.46,3.87,4.92,7.42,4.92
			c2.34,0,4.47-0.56,6.13-1.37v3.71c-1.77,0.85-4.23,1.33-6.93,1.33c-5.92,0-10.96-3.38-10.96-10.2
			C2297.79,107.3,2303.11,104.11,2307.58,104.11z M2307.78,107.7c-2.9,0-5.52,1.73-5.68,5h10.72
			C2313.06,111,2312.01,107.7,2307.78,107.7z"/>
		<path class="st5" d="M2327.78,104.11c2.66,0,5.08,0.68,6.97,1.65v3.79c-1.61-1.09-4.39-1.9-6.69-1.9c-1.73,0-3.59,0.53-3.59,2.1
			c0,3.75,11.65,2.02,11.65,9.07c0,4.27-3.95,5.68-8.34,5.68c-2.82,0-5.68-0.68-7.58-1.85v-3.83c2.01,1.33,4.96,2.06,7.37,2.06
			c2.42,0,4.19-0.4,4.19-1.98c0-3.59-11.69-2.09-11.69-9.03C2320.08,105.64,2323.95,104.11,2327.78,104.11z"/>
	</g>
	<g class="st4">
		<path class="st5" d="M2437.98,95.25c2.82,0,5.6,0.65,8.02,1.85v4.47c-1.97-1.37-4.59-2.09-7.25-2.09c-5.4,0-11,3.18-11.04,10.64
			c0,6.93,5.72,10.16,11.12,10.16c2.9,0,5.52-0.76,7.38-2.18v4.55c-2.38,1.17-5.2,1.85-8.18,1.85c-7.29,0-15.03-4.75-14.99-14.39
			C2423.03,100.08,2430.57,95.25,2437.98,95.25z"/>
		<path class="st5" d="M2459.31,104.11c5.44,0,10.48,3.51,10.48,10.19c0,6.69-5.04,10.2-10.48,10.2c-5.4,0-10.48-3.51-10.48-10.2
			C2448.84,107.62,2453.92,104.11,2459.31,104.11z M2459.31,108.06c-3.63,0-6.12,2.46-6.12,6.25s2.5,6.25,6.12,6.25
			c3.59,0,6.09-2.46,6.09-6.25S2462.9,108.06,2459.31,108.06z"/>
		<path class="st5" d="M2484.55,104.11c4.88,0,7.98,3.3,7.98,7.9v11.97h-4.31v-11.4c0-3.14-1.93-4.63-4.51-4.63
			c-2.46,0-4.31,1.65-5.4,3.22v12.82H2474v-19.34h3.83v2.66C2479.24,105.61,2481.61,104.11,2484.55,104.11z"/>
		<path class="st5" d="M2503.22,97.75v6.89h7.01v3.79h-7.01v8.87c0,2.54,1.17,3.38,3.67,3.38c1.41,0,2.7-0.28,3.91-0.77v3.71
			c-1.45,0.52-3.3,0.85-5.2,0.85c-3.75,0-6.65-1.85-6.65-6.37v-9.67h-3.47v-3.79h3.47v-5.84L2503.22,97.75z"/>
		<path class="st5" d="M2532.21,120.92c0.44,0,0.89-0.12,1.29-0.24v3.1c-0.81,0.32-1.77,0.48-2.74,0.48c-1.77,0-3.18-0.69-3.87-2.26
			c-1.89,1.53-4.27,2.5-7.29,2.5c-3.51,0-6.77-1.93-6.77-5.92c0-4.96,4.59-6.49,8.62-6.49c1.65,0,3.51,0.24,5.04,0.56v-0.69
			c0-2.42-1.77-4.11-5.08-4.11c-2.86,0-5.24,0.72-6.97,1.49v-3.95c1.53-0.52,4.31-1.29,7.41-1.29c5.48,0,8.95,2.62,8.95,8.46v6.93
			C2530.8,120.6,2531.44,120.92,2532.21,120.92z M2517.26,118.3c0,1.89,1.69,2.86,3.63,2.86c2.05,0,4.07-0.77,5.6-2.3v-3.26
			c-1.17-0.24-2.82-0.48-4.19-0.48C2519.84,115.11,2517.26,115.88,2517.26,118.3z"/>
		<path class="st5" d="M2545.96,104.11c2.18,0,4.27,0.48,5.96,1.49v3.95c-1.41-1.01-3.38-1.61-5.36-1.61
			c-3.42,0-6.89,1.81-6.89,6.37c0,4.39,3.35,6.37,6.81,6.37c2.06,0,4.11-0.6,5.64-1.49v3.99c-1.85,0.89-3.95,1.33-6.41,1.33
			c-5.16,0-10.44-3.14-10.44-10.03C2535.28,107.26,2540.8,104.11,2545.96,104.11z"/>
		<path class="st5" d="M2562.01,97.75v6.89h7.01v3.79h-7.01v8.87c0,2.54,1.17,3.38,3.67,3.38c1.41,0,2.7-0.28,3.91-0.77v3.71
			c-1.45,0.52-3.3,0.85-5.2,0.85c-3.75,0-6.65-1.85-6.65-6.37v-9.67h-3.46v-3.79h3.46v-5.84L2562.01,97.75z"/>
	</g>
	<path class="st6" d="M2814,73.37c21.31,0,38.64,17.33,38.64,38.64c0,21.31-17.33,38.64-38.64,38.64h-117.6
		c-21.31,0-38.64-17.33-38.64-38.64c0-21.31,17.33-38.64,38.64-38.64H2814L2814,73.37z M2814,70.01h-117.6c-23.2,0-42,18.8-42,42
		c0,23.2,18.8,42,42,42H2814c23.2,0,42-18.8,42-42C2856,88.81,2837.2,70.01,2814,70.01L2814,70.01z"/>
	<g class="st4">
		<path class="st5" d="M2696.57,95.25c3.22,0,6.53,0.81,8.82,2.14v4.39c-2.3-1.53-5.44-2.38-8.46-2.34c-3.43,0-5.6,1.01-5.6,3.43
			c0,6.08,16.12,3.63,16.12,13.7c0,5.92-5.04,7.98-10.68,7.94c-3.79,0-7.21-0.89-9.99-2.46v-4.51c3.06,1.97,6.45,2.78,9.67,2.78
			c3.63,0,6.33-0.85,6.33-3.51c0-6.53-16.12-3.87-16.12-13.86C2686.66,97.75,2691.25,95.25,2696.57,95.25z"/>
		<path class="st5" d="M2713.63,100.93c-1.41,0-2.66-0.81-2.66-2.58c0-1.69,1.25-2.54,2.66-2.54c1.41,0,2.62,0.85,2.62,2.54
			C2716.25,100.12,2715.04,100.93,2713.63,100.93z M2711.45,123.98v-19.34h4.31v19.34H2711.45z"/>
		<path class="st5" d="M2729.63,104.11c3.63,0,5.92,1.69,7.41,3.54v-3.02h3.87v19.1c0,6.97-5.32,9.63-10.84,9.63
			c-2.94,0-5.68-0.65-7.98-1.81v-3.95c2.22,1.29,4.8,1.97,7.42,1.97c3.83,0,7.09-1.37,7.09-5.72v-2.46c-1.33,1.57-3.59,3.1-6.97,3.1
			c-5.84,0-9.59-4.63-9.59-10.2C2720.04,108.75,2723.79,104.11,2729.63,104.11z M2730.4,107.9c-3.46,0-6,2.62-6,6.41
			s2.54,6.41,6,6.41c3.02,0,5.24-1.81,6.17-3.79v-5C2735.64,109.84,2733.42,107.9,2730.4,107.9z"/>
		<path class="st5" d="M2756.89,104.11c4.88,0,7.98,3.3,7.98,7.9v11.97h-4.31v-11.4c0-3.14-1.93-4.63-4.51-4.63
			c-2.46,0-4.31,1.65-5.4,3.22v12.82h-4.31v-19.34h3.83v2.66C2751.57,105.61,2753.95,104.11,2756.89,104.11z"/>
		<path class="st5" d="M2797.89,104.64v19.34h-3.83v-2.66c-1.41,1.69-3.79,3.18-6.73,3.18c-5.12,0-7.98-3.3-7.98-7.9v-11.97h4.31
			v11.4c0,3.14,1.65,4.63,4.51,4.63c2.46,0,4.31-1.65,5.4-3.22v-12.81H2797.89z"/>
		<path class="st5" d="M2814.58,104.11c5.8,0,9.59,4.63,9.59,10.19c0,5.56-3.79,10.2-9.59,10.2c-3.38,0-5.64-1.49-6.97-3.02v11.37
			h-4.31v-28.21h3.83v3.02C2808.66,105.81,2810.96,104.11,2814.58,104.11z M2813.78,107.9c-2.98,0-5.24,1.93-6.17,4.03v4.71
			c0.93,2.13,3.18,4.07,6.17,4.07c3.51,0,6-2.62,6-6.41S2817.28,107.9,2813.78,107.9z"/>
	</g>
	<g class="st4">
		<path class="st5" d="M181.37,91.04v23.44h14.07v9.51H170.5V91.04H181.37z"/>
		<path class="st5" d="M215.1,90.33c11.77,0,17.65,8,17.65,17.18c0,9.18-5.88,17.18-17.65,17.18c-11.77,0-17.65-8-17.65-17.18
			C197.45,98.33,203.33,90.33,215.1,90.33z M215.1,98.33c-5.7,0-8.71,3.91-8.71,9.18c0,5.27,3.01,9.18,8.71,9.18
			c5.69,0,8.71-3.9,8.71-9.18C223.8,102.24,220.79,98.33,215.1,98.33z"/>
		<path class="st5" d="M253.86,90.38c3.53,0,7.06,0.75,10.12,2.12v6.73c-2.49-1.65-5.83-2.54-9.18-2.54
			c-5.88,0-11.67,3.11-11.67,10.83c0,8.75,6.45,10.97,11.3,10.97c1.41,0,2.64-0.24,3.62-0.61V106.1h6.73v16.33
			c-3.29,1.41-7.06,2.21-10.73,2.21c-9.23,0-18.12-5.04-18.12-17.13C235.93,95.55,244.82,90.38,253.86,90.38z"/>
		<path class="st5" d="M286.41,90.42c11.58,0,17.32,8.38,17.32,17.08c0,8.71-5.74,17.09-17.32,17.09
			c-11.63,0-17.32-8.38-17.32-17.09C269.09,98.8,274.79,90.42,286.41,90.42z M286.41,95.46c-7.95,0-11.86,5.74-11.86,12.05
			c0,6.31,3.91,12.05,11.86,12.05c8,0,11.86-5.74,11.86-12.05C298.27,101.2,294.41,95.46,286.41,95.46z"/>
		<path class="st5" d="M333.36,91.04v3.77h-11.58v29.18h-3.95V94.8h-11.58v-3.77H333.36z"/>
		<path class="st5" d="M347.75,123.98v-12.85l-12.94-20.1h3.11l11.25,17.55l11.25-17.55h3.11l-12.95,20.1v12.85H347.75z"/>
		<path class="st5" d="M379.54,91.04c7.34,0,13.79,2.31,13.79,10.31c0,8.05-6.45,10.36-13.79,10.36h-8.61v12.29h-1.88V91.04H379.54z
			 M379.64,92.82h-8.71v17.09h8.71c6.35,0,11.81-1.79,11.81-8.57C391.45,94.61,386.04,92.82,379.64,92.82z"/>
		<path class="st5" d="M421.37,91.04v1.13h-20.24v14.69h18.82v1.13h-18.82v14.87h20.66v1.13h-21.84V91.04H421.37z"/>
	</g>
	<g class="st4">
		<path class="st7" d="M294.51,517.24l-26.12,84.66h-19.71l-16.81-57.69l-16.81,57.69h-19.71l-26.12-84.66h19.59l16.81,63.98
			l18.26-63.98h15.97l18.26,63.98l16.81-63.98H294.51z"/>
		<path class="st7" d="M319.68,517.24v31.93c4.23-3.99,10.16-7.02,17.42-7.02c15.24,0,23.58,10.4,23.58,23.83v35.92h-16.81v-33.74
			c0-7.86-4.72-11.49-11.25-11.49c-5.93,0-10.52,3.87-12.94,7.38v37.86h-16.81v-84.66H319.68z"/>
		<path class="st7" d="M414.39,543.85h17.42l-25.76,65.07c-6.53,16.21-15.6,21.16-25.04,21.16c-3.02,0-6.05-0.6-9.07-1.33v-13.91
			c2.3,0.48,4.6,0.85,6.89,0.85c6.05,0,10.64-4.11,13.79-12.7l0.12-0.24l-27.46-58.9h17.78L400,583.04L414.39,543.85z"/>
		<path class="st7" d="M524.7,517.24v84.66h-14.76v-8.46c-3.75,5.2-10.4,10.16-21.04,10.16c-18.5,0-28.42-14.88-28.42-30.72
			c0-15.85,9.92-30.72,28.42-30.72c9.19,0,15.36,3.75,19.11,7.86v-32.78H524.7z M492.89,556.31c-9.55,0-15.24,7.5-15.24,16.57
			c0,9.07,5.68,16.57,15.24,16.57c7.38,0,12.82-4.59,15.12-9.68v-13.79C505.71,560.9,500.27,556.31,492.89,556.31z"/>
		<path class="st7" d="M567.77,542.16c16.93,0,32.05,10.4,32.05,30.72c0,20.32-15.12,30.72-32.05,30.72
			c-16.81,0-32.05-10.4-32.05-30.72C535.72,552.56,550.96,542.16,567.77,542.16z M567.77,557.16c-9.55,0-14.88,6.77-14.88,15.72
			c0,8.95,5.32,15.72,14.88,15.72c9.68,0,15-6.77,15-15.72C582.76,563.93,577.44,557.16,567.77,557.16z"/>
		<path class="st7" d="M725.25,543.85l-18.63,58.05h-17.78l-11.49-37.86l-11.49,37.86h-17.9l-18.63-58.05h17.9l10.52,39.79
			l11.61-39.79h15.96l11.49,39.79l10.64-39.79H725.25z"/>
		<path class="st7" d="M758.88,542.16c24.07,0,31.81,18.99,27.94,36.16h-40.88c1.94,8.47,10.89,11.97,20.44,11.97
			c6.65,0,12.58-1.33,17.54-3.51v13.18c-5.44,2.3-12.58,3.63-21.29,3.63c-18.38,0-33.62-10.52-33.62-30.72
			C729.01,550.99,745.82,542.16,758.88,542.16z M759.49,554.98c-7.13,0-13.43,4.47-13.67,12.46h25.88
			C772.31,563.44,770.01,554.98,759.49,554.98z"/>
		<path class="st7" d="M232.22,664.81v58.05h-14.88v-7.38c-4.48,5.2-11.13,9.07-19.35,9.07c-15.72,0-23.58-10.4-23.58-23.83v-35.92
			h16.81v33.74c0,7.74,4.23,11.49,11.13,11.49c6.05,0,10.52-3.87,13.06-7.38v-37.86H232.22z"/>
		<path class="st7" d="M268.15,663.12c8.22,0,15.48,2.06,21.41,4.96v13.79c-4.96-3.39-13.43-5.93-20.32-5.93
			c-3.75,0-8.1,1.09-8.1,4.6c0,9.68,32.77,4.84,32.77,26.13c0,13.67-12.46,17.9-26.37,17.9c-8.83,0-17.17-1.93-23.1-5.44v-13.91
			c6.29,4.11,15.12,6.17,22.13,6.17c6.17,0,10.16-1.09,10.16-4.35c0-9.31-32.78-5.2-32.78-26
			C243.96,667.59,255.94,663.12,268.15,663.12z"/>
		<path class="st7" d="M330.81,663.12c24.07,0,31.81,18.99,27.94,36.16h-40.88c1.93,8.46,10.89,11.97,20.44,11.97
			c6.65,0,12.58-1.33,17.54-3.51v13.18c-5.44,2.3-12.58,3.63-21.29,3.63c-18.38,0-33.62-10.52-33.62-30.72
			C300.93,671.95,317.75,663.12,330.81,663.12z M331.41,675.94c-7.14,0-13.43,4.48-13.67,12.46h25.88
			C344.23,684.4,341.93,675.94,331.41,675.94z"/>
		<path class="st7" d="M405.68,655.14c-5.2,0-9.79-2.9-9.79-9.55c0-6.53,4.6-9.43,9.79-9.43c5.32,0,9.92,2.9,9.92,9.43
			C415.6,652.23,411,655.14,405.68,655.14z M397.34,722.87v-58.05h16.81v58.05H397.34z"/>
		<path class="st7" d="M449.71,643.89v20.92h18.38v14.15h-18.38v22.74c0,6.05,3.02,8.71,9.31,8.71c3.87,0,7.13-0.6,10.52-1.94v13.55
			c-4.47,1.57-9.8,2.54-15.6,2.54c-11.25,0-20.92-5.2-20.92-19.59v-26h-9.8v-14.15h9.8v-16.93L449.71,643.89z"/>
		<path class="st7" d="M491.44,695.05c0-15.36,19.11-24.19,19.11-33.5c0-6.77-5.8-9.07-13.79-9.07c-7.5,0-15,2.78-20.44,5.93v-15.96
			c6.29-3.39,14.39-5.93,23.46-5.93c15.24,0,28.9,5.81,28.9,21.17c0,16.81-21.29,26.12-21.29,37.37H491.44z M499.54,724.44
			c-5.44,0-10.28-3.14-10.28-9.92c0-6.77,4.84-9.92,10.28-9.92c5.44,0,10.16,3.14,10.16,9.92
			C509.7,721.29,504.99,724.44,499.54,724.44z"/>
	</g>
	<g class="st4">
		<path class="st8" d="M175.09,803.95v28.21h-3.39v-28.21H175.09z"/>
		<path class="st8" d="M185.98,806v6.81h7.74v2.98h-7.74v9.99c0,2.94,1.33,3.83,4.15,3.83c1.53,0,2.98-0.37,4.27-0.89v2.98
			c-1.45,0.52-3.34,0.89-5.2,0.89c-3.75,0-6.41-2.01-6.41-6.25V815.8h-3.63v-2.98h3.63v-6L185.98,806z"/>
		<path class="st8" d="M209.77,808.7c-1.13,0-2.09-0.69-2.09-2.06c0-1.33,0.97-2.06,2.09-2.06c1.13,0,2.09,0.73,2.09,2.06
			C211.86,808.02,210.9,808.7,209.77,808.7z M208.16,832.16v-19.34h3.22v19.34H208.16z"/>
		<path class="st8" d="M223.68,812.33c2.58,0,5.04,0.69,6.85,1.65v3.06c-1.61-1.05-4.31-1.81-6.65-1.81c-2.1,0-4.31,0.68-4.31,2.58
			c0,4.19,12.29,2.42,12.29,9.39c0,4.03-3.79,5.44-7.98,5.44c-2.74,0-5.68-0.72-7.5-1.89v-3.14c1.97,1.33,4.92,2.06,7.33,2.06
			c2.74,0,4.92-0.44,4.92-2.38c0-4.07-12.33-2.46-12.33-9.39C216.3,813.9,220.05,812.33,223.68,812.33z"/>
		<path class="st8" d="M263.47,829.62c0.48,0,1.01-0.12,1.49-0.28v2.62c-0.77,0.28-1.61,0.44-2.42,0.44c-1.57,0-2.98-0.64-3.55-2.34
			c-1.93,1.61-4.39,2.58-7.54,2.58c-3.42,0-6.81-1.81-6.81-5.88c0-5,4.59-6.53,8.75-6.53c1.69,0,3.75,0.24,5.36,0.61v-0.69
			c0-2.9-1.97-4.84-5.52-4.84c-2.98,0-5.36,0.72-7.05,1.45v-3.14c1.53-0.52,4.19-1.29,7.37-1.29c5.16,0,8.42,2.82,8.42,8.22v7.58
			C261.97,829.29,262.62,829.62,263.47,829.62z M252.14,829.86c2.46,0,4.92-1.01,6.61-2.82v-3.55c-1.37-0.28-3.34-0.56-4.92-0.56
			c-2.82,0-5.88,0.85-5.88,3.67C247.95,828.85,250.01,829.86,252.14,829.86z"/>
		<path class="st8" d="M280.61,802.74v29.42h-3.22v-29.42H280.61z"/>
		<path class="st8" d="M295.64,812.33c5.28,0,10.32,3.55,10.32,10.15s-5.04,10.16-10.32,10.16c-5.24,0-10.32-3.55-10.32-10.16
			S290.41,812.33,295.64,812.33z M295.64,815.39c-3.95,0-7.09,2.62-7.09,7.09c0,4.47,3.14,7.09,7.09,7.09
			c3.95,0,7.09-2.62,7.09-7.09C302.74,818.01,299.59,815.39,295.64,815.39z"/>
		<path class="st8" d="M320.48,812.33c4.63,0,8.06,3.18,8.06,7.9v11.93h-3.23v-11.53c0-3.63-2.21-5.32-5.2-5.32
			c-2.86,0-5,1.93-6.29,3.87v12.98h-3.22v-19.34h2.9v2.86C314.8,813.98,317.38,812.33,320.48,812.33z"/>
		<path class="st8" d="M342.62,812.33c3.71,0,6.08,1.73,7.82,3.71v-3.22h2.9v19.34c0,6.65-5.2,9.35-10.56,9.35
			c-2.86,0-5.56-0.65-7.86-1.82v-3.14c2.3,1.29,4.8,1.97,7.46,1.97c4.11,0,7.78-1.57,7.74-6.37v-2.98
			c-1.41,1.73-3.79,3.47-7.49,3.47c-5.52,0-9.67-4.35-9.67-10.16C332.95,816.68,337.1,812.33,342.62,812.33z M342.98,815.31
			c-3.75,0-6.81,2.74-6.81,7.17c0,4.43,3.06,7.17,6.81,7.17c3.47,0,6.05-2.1,7.13-4.35v-5.24
			C349.03,817.57,346.45,815.31,342.98,815.31z"/>
		<path class="st8" d="M377.66,812.33c7.46,0,10.2,6.08,8.99,11.57h-15.39c0.4,4.07,4.07,5.76,7.98,5.76c2.38,0,4.71-0.64,6.37-1.57
			v3.14c-1.77,0.93-4.31,1.41-6.85,1.41c-5.72,0-10.72-3.27-10.72-10.16C368.02,815.72,373.06,812.33,377.66,812.33z M377.86,815.31
			c-3.3,0-6.37,1.97-6.61,5.76h12.53C384.06,819.02,382.77,815.31,377.86,815.31z"/>
		<path class="st8" d="M397.69,812.33c2.58,0,5.04,0.69,6.85,1.65v3.06c-1.61-1.05-4.31-1.81-6.65-1.81c-2.09,0-4.31,0.68-4.31,2.58
			c0,4.19,12.29,2.42,12.29,9.39c0,4.03-3.79,5.44-7.98,5.44c-2.74,0-5.68-0.72-7.5-1.89v-3.14c1.97,1.33,4.92,2.06,7.34,2.06
			c2.74,0,4.92-0.44,4.92-2.38c0-4.07-12.33-2.46-12.33-9.39C390.32,813.9,394.07,812.33,397.69,812.33z"/>
		<path class="st8" d="M414.71,806v6.81h7.74v2.98h-7.74v9.99c0,2.94,1.33,3.83,4.15,3.83c1.53,0,2.98-0.37,4.27-0.89v2.98
			c-1.45,0.52-3.34,0.89-5.2,0.89c-3.75,0-6.41-2.01-6.41-6.25V815.8h-3.63v-2.98h3.63v-6L414.71,806z"/>
		<path class="st8" d="M443.98,829.62c0.48,0,1.01-0.12,1.49-0.28v2.62c-0.76,0.28-1.61,0.44-2.42,0.44c-1.57,0-2.98-0.64-3.55-2.34
			c-1.93,1.61-4.39,2.58-7.54,2.58c-3.43,0-6.81-1.81-6.81-5.88c0-5,4.6-6.53,8.75-6.53c1.69,0,3.75,0.24,5.36,0.61v-0.69
			c0-2.9-1.98-4.84-5.52-4.84c-2.98,0-5.36,0.72-7.05,1.45v-3.14c1.53-0.52,4.19-1.29,7.37-1.29c5.16,0,8.42,2.82,8.42,8.22v7.58
			C442.48,829.29,443.13,829.62,443.98,829.62z M432.65,829.86c2.46,0,4.92-1.01,6.61-2.82v-3.55c-1.37-0.28-3.34-0.56-4.92-0.56
			c-2.82,0-5.88,0.85-5.88,3.67C428.46,828.85,430.52,829.86,432.65,829.86z"/>
		<path class="st8" d="M451.92,803.95v11.77c1.41-1.65,3.79-3.39,7.5-3.39c5.52,0,9.67,4.35,9.67,10.15c0,5.8-4.15,10.16-9.67,10.16
			c-3.71,0-6.08-1.73-7.82-3.71v3.22h-2.9v-28.21H451.92z M459.06,815.31c-3.46,0-6.04,2.26-7.13,4.75v4.84
			c1.09,2.5,3.67,4.75,7.13,4.75c3.75,0,6.81-2.74,6.81-7.17C465.87,818.05,462.81,815.31,459.06,815.31z"/>
		<path class="st8" d="M477.04,802.74v29.42h-3.22v-29.42H477.04z"/>
		<path class="st8" d="M484.79,808.7c-1.13,0-2.1-0.69-2.1-2.06c0-1.33,0.97-2.06,2.1-2.06c1.13,0,2.09,0.73,2.09,2.06
			C486.88,808.02,485.91,808.7,484.79,808.7z M483.17,832.16v-19.34h3.22v19.34H483.17z"/>
		<path class="st8" d="M498.69,812.33c2.58,0,5.04,0.69,6.85,1.65v3.06c-1.61-1.05-4.31-1.81-6.65-1.81c-2.09,0-4.31,0.68-4.31,2.58
			c0,4.19,12.29,2.42,12.29,9.39c0,4.03-3.79,5.44-7.98,5.44c-2.74,0-5.68-0.72-7.49-1.89v-3.14c1.97,1.33,4.92,2.06,7.33,2.06
			c2.74,0,4.92-0.44,4.92-2.38c0-4.07-12.33-2.46-12.33-9.39C491.32,813.9,495.07,812.33,498.69,812.33z"/>
		<path class="st8" d="M514.46,803.95v11.32c1.37-1.53,3.79-2.94,6.65-2.94c4.63,0,8.06,3.18,8.06,7.9v11.93h-3.22v-11.53
			c0-3.63-2.22-5.32-5.2-5.32c-2.86,0-5,1.93-6.29,3.87v12.98h-3.23v-28.21H514.46z"/>
		<path class="st8" d="M543.2,812.33c7.46,0,10.2,6.08,8.99,11.57H536.8c0.4,4.07,4.07,5.76,7.98,5.76c2.38,0,4.71-0.64,6.37-1.57
			v3.14c-1.77,0.93-4.31,1.41-6.85,1.41c-5.72,0-10.72-3.27-10.72-10.16C533.57,815.72,538.61,812.33,543.2,812.33z M543.41,815.31
			c-3.31,0-6.37,1.97-6.61,5.76h12.53C549.61,819.02,548.32,815.31,543.41,815.31z"/>
		<path class="st8" d="M576.06,803.95v28.21h-2.9v-3.22c-1.73,1.98-4.11,3.71-7.82,3.71c-5.52,0-9.67-4.35-9.67-10.16
			c0-5.8,4.15-10.15,9.67-10.15c3.71,0,6.09,1.73,7.5,3.39v-11.77H576.06z M565.7,815.31c-3.75,0-6.81,2.74-6.81,7.17
			c0,4.43,3.06,7.17,6.81,7.17c3.46,0,6.04-2.26,7.13-4.75v-4.84C571.75,817.57,569.17,815.31,565.7,815.31z"/>
		<path class="st8" d="M593.57,832.16V815.8h-3.63v-2.98h3.63v-2.34c0-5.4,3.46-7.01,6.85-7.01c1.77,0,3.51,0.36,4.83,0.89v2.98
			c-1.09-0.52-2.62-0.89-4.07-0.89c-2.34,0-4.39,0.61-4.39,4.15v2.22h7.25v2.98h-7.25v16.36H593.57z"/>
		<path class="st8" d="M624.45,829.62c0.48,0,1.01-0.12,1.49-0.28v2.62c-0.76,0.28-1.61,0.44-2.42,0.44c-1.57,0-2.98-0.64-3.54-2.34
			c-1.94,1.61-4.39,2.58-7.54,2.58c-3.43,0-6.81-1.81-6.81-5.88c0-5,4.59-6.53,8.75-6.53c1.69,0,3.75,0.24,5.36,0.61v-0.69
			c0-2.9-1.98-4.84-5.52-4.84c-2.98,0-5.36,0.72-7.05,1.45v-3.14c1.53-0.52,4.19-1.29,7.38-1.29c5.16,0,8.42,2.82,8.42,8.22v7.58
			C622.95,829.29,623.6,829.62,624.45,829.62z M613.12,829.86c2.46,0,4.92-1.01,6.61-2.82v-3.55c-1.37-0.28-3.34-0.56-4.91-0.56
			c-2.82,0-5.88,0.85-5.88,3.67C608.93,828.85,610.99,829.86,613.12,829.86z"/>
		<path class="st8" d="M638.32,812.33c2.17,0,4.31,0.48,5.96,1.57v3.14c-1.45-1.13-3.51-1.73-5.56-1.73c-3.75,0-7.66,2.09-7.66,7.17
			c0,4.96,3.79,7.17,7.58,7.17c2.1,0,4.23-0.6,5.84-1.57v3.22c-1.81,0.89-3.87,1.33-6.29,1.33c-5.08,0-10.36-3.18-10.36-10.08
			C627.84,815.51,633.28,812.33,638.32,812.33z"/>
		<path class="st8" d="M653.52,806v6.81h7.74v2.98h-7.74v9.99c0,2.94,1.33,3.83,4.15,3.83c1.53,0,2.98-0.37,4.27-0.89v2.98
			c-1.45,0.52-3.34,0.89-5.2,0.89c-3.75,0-6.41-2.01-6.41-6.25V815.8h-3.63v-2.98h3.63v-6L653.52,806z"/>
		<path class="st8" d="M679.29,806v6.81h7.74v2.98h-7.74v9.99c0,2.94,1.33,3.83,4.15,3.83c1.53,0,2.98-0.37,4.27-0.89v2.98
			c-1.45,0.52-3.34,0.89-5.2,0.89c-3.75,0-6.41-2.01-6.41-6.25V815.8h-3.63v-2.98h3.63v-6L679.29,806z"/>
		<path class="st8" d="M694.57,803.95v11.32c1.37-1.53,3.79-2.94,6.65-2.94c4.63,0,8.06,3.18,8.06,7.9v11.93h-3.22v-11.53
			c0-3.63-2.22-5.32-5.2-5.32c-2.86,0-5,1.93-6.29,3.87v12.98h-3.23v-28.21H694.57z"/>
		<path class="st8" d="M732.22,829.62c0.48,0,1.01-0.12,1.49-0.28v2.62c-0.77,0.28-1.61,0.44-2.42,0.44c-1.57,0-2.98-0.64-3.55-2.34
			c-1.93,1.61-4.39,2.58-7.54,2.58c-3.42,0-6.81-1.81-6.81-5.88c0-5,4.59-6.53,8.75-6.53c1.69,0,3.75,0.24,5.36,0.61v-0.69
			c0-2.9-1.97-4.84-5.52-4.84c-2.98,0-5.36,0.72-7.05,1.45v-3.14c1.53-0.52,4.19-1.29,7.37-1.29c5.16,0,8.42,2.82,8.42,8.22v7.58
			C730.73,829.29,731.37,829.62,732.22,829.62z M720.9,829.86c2.46,0,4.92-1.01,6.61-2.82v-3.55c-1.37-0.28-3.35-0.56-4.92-0.56
			c-2.82,0-5.88,0.85-5.88,3.67C716.7,828.85,718.76,829.86,720.9,829.86z"/>
		<path class="st8" d="M741.26,806v6.81h7.74v2.98h-7.74v9.99c0,2.94,1.33,3.83,4.15,3.83c1.53,0,2.98-0.37,4.27-0.89v2.98
			c-1.45,0.52-3.35,0.89-5.2,0.89c-3.75,0-6.41-2.01-6.41-6.25V815.8h-3.63v-2.98h3.63v-6L741.26,806z"/>
		<path class="st8" d="M780.56,829.62c0.48,0,1.01-0.12,1.49-0.28v2.62c-0.77,0.28-1.61,0.44-2.42,0.44c-1.57,0-2.98-0.64-3.55-2.34
			c-1.93,1.61-4.39,2.58-7.54,2.58c-3.42,0-6.81-1.81-6.81-5.88c0-5,4.59-6.53,8.74-6.53c1.69,0,3.75,0.24,5.36,0.61v-0.69
			c0-2.9-1.97-4.84-5.52-4.84c-2.98,0-5.36,0.72-7.05,1.45v-3.14c1.53-0.52,4.19-1.29,7.37-1.29c5.16,0,8.42,2.82,8.42,8.22v7.58
			C779.07,829.29,779.71,829.62,780.56,829.62z M769.24,829.86c2.46,0,4.92-1.01,6.61-2.82v-3.55c-1.37-0.28-3.34-0.56-4.92-0.56
			c-2.82,0-5.88,0.85-5.88,3.67C765.05,828.85,767.1,829.86,769.24,829.86z"/>
		<path class="st8" d="M805.64,812.41v3.22c-3.79-0.44-6.85,1.37-8.02,4.47v12.05h-3.22v-19.34h2.9v3.43
			C798.83,813.7,802.26,812.13,805.64,812.41z"/>
		<path class="st8" d="M816.73,812.33c7.46,0,10.2,6.08,8.99,11.57h-15.39c0.4,4.07,4.07,5.76,7.98,5.76c2.38,0,4.71-0.64,6.37-1.57
			v3.14c-1.78,0.93-4.31,1.41-6.85,1.41c-5.72,0-10.72-3.27-10.72-10.16C807.1,815.72,812.14,812.33,816.73,812.33z M816.94,815.31
			c-3.3,0-6.37,1.97-6.61,5.76h12.53C823.14,819.02,821.85,815.31,816.94,815.31z"/>
		<path class="st8" d="M847.73,829.62c0.48,0,1.01-0.12,1.49-0.28v2.62c-0.76,0.28-1.61,0.44-2.42,0.44c-1.57,0-2.98-0.64-3.54-2.34
			c-1.94,1.61-4.39,2.58-7.54,2.58c-3.43,0-6.81-1.81-6.81-5.88c0-5,4.59-6.53,8.75-6.53c1.69,0,3.75,0.24,5.36,0.61v-0.69
			c0-2.9-1.98-4.84-5.52-4.84c-2.98,0-5.36,0.72-7.05,1.45v-3.14c1.53-0.52,4.19-1.29,7.38-1.29c5.16,0,8.42,2.82,8.42,8.22v7.58
			C846.24,829.29,846.89,829.62,847.73,829.62z M836.41,829.86c2.46,0,4.92-1.01,6.61-2.82v-3.55c-1.37-0.28-3.34-0.56-4.92-0.56
			c-2.82,0-5.88,0.85-5.88,3.67C832.22,828.85,834.27,829.86,836.41,829.86z"/>
		<path class="st8" d="M871.52,803.95v28.21h-2.9v-3.22c-1.73,1.98-4.11,3.71-7.82,3.71c-5.52,0-9.67-4.35-9.67-10.16
			c0-5.8,4.15-10.15,9.67-10.15c3.71,0,6.08,1.73,7.5,3.39v-11.77H871.52z M861.16,815.31c-3.75,0-6.81,2.74-6.81,7.17
			c0,4.43,3.06,7.17,6.81,7.17c3.46,0,6.04-2.26,7.13-4.75v-4.84C867.21,817.57,864.63,815.31,861.16,815.31z"/>
		<path class="st8" d="M885.8,812.33c7.46,0,10.2,6.08,8.99,11.57h-15.39c0.4,4.07,4.07,5.76,7.98,5.76c2.38,0,4.71-0.64,6.37-1.57
			v3.14c-1.78,0.93-4.31,1.41-6.85,1.41c-5.72,0-10.72-3.27-10.72-10.16C876.17,815.72,881.21,812.33,885.8,812.33z M886,815.31
			c-3.31,0-6.37,1.97-6.61,5.76h12.53C892.21,819.02,890.92,815.31,886,815.31z"/>
		<path class="st8" d="M910.84,812.41v3.22c-3.79-0.44-6.85,1.37-8.02,4.47v12.05h-3.22v-19.34h2.9v3.43
			C904.03,813.7,907.45,812.13,910.84,812.41z"/>
		<path class="st8" d="M951.07,812.81l-6.61,19.34h-3.51l-5.24-14.95l-5.24,14.95h-3.5l-6.61-19.34h3.38l5,15.8l5.52-15.8h2.9
			l5.52,15.8l5-15.8H951.07z"/>
		<path class="st8" d="M956.48,808.7c-1.13,0-2.1-0.69-2.1-2.06c0-1.33,0.97-2.06,2.1-2.06c1.13,0,2.1,0.73,2.1,2.06
			C958.58,808.02,957.61,808.7,956.48,808.7z M954.87,832.16v-19.34h3.22v19.34H954.87z"/>
		<path class="st8" d="M967.45,802.74v29.42h-3.22v-29.42H967.45z"/>
		<path class="st8" d="M976.8,802.74v29.42h-3.22v-29.42H976.8z"/>
		<path class="st8" d="M174.21,850.99v11.77c1.41-1.65,3.79-3.39,7.5-3.39c5.52,0,9.67,4.35,9.67,10.16c0,5.8-4.15,10.16-9.67,10.16
			c-3.71,0-6.08-1.73-7.82-3.71v3.22h-2.9v-28.21H174.21z M181.34,862.35c-3.46,0-6.04,2.26-7.13,4.75v4.84
			c1.09,2.5,3.67,4.75,7.13,4.75c3.75,0,6.81-2.74,6.81-7.17C188.15,865.09,185.09,862.35,181.34,862.35z"/>
		<path class="st8" d="M204.32,859.37c7.46,0,10.2,6.08,8.99,11.57h-15.39c0.4,4.07,4.07,5.76,7.98,5.76c2.38,0,4.71-0.65,6.37-1.57
			v3.14c-1.77,0.93-4.31,1.41-6.85,1.41c-5.72,0-10.72-3.26-10.72-10.16C194.69,862.76,199.73,859.37,204.32,859.37z M204.52,862.35
			c-3.3,0-6.37,1.97-6.61,5.76h12.53C210.73,866.06,209.44,862.35,204.52,862.35z"/>
		<path class="st8" d="M247.22,850.99v28.21h-2.9v-3.22c-1.73,1.98-4.11,3.71-7.82,3.71c-5.52,0-9.67-4.35-9.67-10.16
			c0-5.8,4.15-10.16,9.67-10.16c3.71,0,6.08,1.73,7.5,3.39v-11.77H247.22z M236.86,862.35c-3.75,0-6.81,2.74-6.81,7.17
			c0,4.43,3.06,7.17,6.81,7.17c3.46,0,6.04-2.26,7.13-4.75v-4.84C242.9,864.61,240.33,862.35,236.86,862.35z"/>
		<path class="st8" d="M254.89,855.74c-1.13,0-2.1-0.69-2.1-2.06c0-1.33,0.97-2.06,2.1-2.06c1.13,0,2.09,0.72,2.09,2.06
			C256.98,855.06,256.02,855.74,254.89,855.74z M253.27,879.2v-19.34h3.22v19.34H253.27z"/>
		<path class="st8" d="M268.79,859.37c2.58,0,5.04,0.69,6.85,1.65v3.06c-1.61-1.05-4.31-1.81-6.65-1.81c-2.1,0-4.31,0.68-4.31,2.58
			c0,4.19,12.29,2.42,12.29,9.39c0,4.03-3.79,5.44-7.98,5.44c-2.74,0-5.68-0.73-7.5-1.89v-3.14c1.97,1.33,4.92,2.06,7.33,2.06
			c2.74,0,4.92-0.44,4.92-2.38c0-4.07-12.33-2.46-12.33-9.39C261.42,860.94,265.17,859.37,268.79,859.37z"/>
		<path class="st8" d="M285.81,853.04v6.81h7.74v2.98h-7.74v9.99c0,2.94,1.33,3.83,4.15,3.83c1.53,0,2.98-0.36,4.27-0.89v2.98
			c-1.45,0.52-3.34,0.89-5.2,0.89c-3.75,0-6.41-2.01-6.41-6.25v-10.56H279v-2.98h3.63v-6L285.81,853.04z"/>
		<path class="st8" d="M309.11,859.45v3.22c-3.79-0.44-6.85,1.37-8.02,4.47v12.05h-3.22v-19.34h2.9v3.43
			C302.3,860.74,305.73,859.17,309.11,859.45z"/>
		<path class="st8" d="M329.59,876.66c0.48,0,1.01-0.12,1.49-0.28V879c-0.76,0.28-1.61,0.44-2.42,0.44c-1.57,0-2.98-0.64-3.55-2.34
			c-1.93,1.61-4.39,2.58-7.54,2.58c-3.43,0-6.81-1.81-6.81-5.88c0-5,4.6-6.53,8.74-6.53c1.69,0,3.75,0.24,5.36,0.61v-0.69
			c0-2.9-1.98-4.84-5.52-4.84c-2.98,0-5.36,0.73-7.05,1.45v-3.14c1.53-0.52,4.19-1.29,7.38-1.29c5.16,0,8.42,2.82,8.42,8.22v7.58
			C328.1,876.34,328.75,876.66,329.59,876.66z M318.27,876.9c2.46,0,4.92-1.01,6.61-2.82v-3.55c-1.37-0.28-3.35-0.56-4.92-0.56
			c-2.82,0-5.88,0.85-5.88,3.67C314.08,875.89,316.13,876.9,318.27,876.9z"/>
		<path class="st8" d="M343.46,859.37c2.18,0,4.31,0.48,5.96,1.57v3.14c-1.45-1.13-3.51-1.73-5.56-1.73c-3.75,0-7.66,2.09-7.66,7.17
			c0,4.96,3.79,7.17,7.58,7.17c2.1,0,4.23-0.6,5.84-1.57v3.22c-1.82,0.89-3.87,1.33-6.29,1.33c-5.08,0-10.36-3.18-10.36-10.08
			C332.99,862.55,338.43,859.37,343.46,859.37z"/>
		<path class="st8" d="M358.67,853.04v6.81h7.74v2.98h-7.74v9.99c0,2.94,1.33,3.83,4.15,3.83c1.53,0,2.98-0.36,4.27-0.89v2.98
			c-1.45,0.52-3.34,0.89-5.2,0.89c-3.75,0-6.41-2.01-6.41-6.25v-10.56h-3.63v-2.98h3.63v-6L358.67,853.04z"/>
		<path class="st8" d="M379.03,859.37c7.46,0,10.19,6.08,8.99,11.57h-15.4c0.4,4.07,4.07,5.76,7.98,5.76c2.38,0,4.72-0.65,6.37-1.57
			v3.14c-1.77,0.93-4.31,1.41-6.85,1.41c-5.72,0-10.72-3.26-10.72-10.16C369.4,862.76,374.43,859.37,379.03,859.37z M379.23,862.35
			c-3.31,0-6.37,1.97-6.61,5.76h12.53C385.44,866.06,384.15,862.35,379.23,862.35z"/>
		<path class="st8" d="M411.88,850.99v28.21h-2.9v-3.22c-1.73,1.98-4.11,3.71-7.82,3.71c-5.52,0-9.67-4.35-9.67-10.16
			c0-5.8,4.15-10.16,9.67-10.16c3.71,0,6.08,1.73,7.49,3.39v-11.77H411.88z M401.53,862.35c-3.75,0-6.81,2.74-6.81,7.17
			c0,4.43,3.06,7.17,6.81,7.17c3.47,0,6.04-2.26,7.13-4.75v-4.84C407.57,864.61,404.99,862.35,401.53,862.35z"/>
		<path class="st8" d="M431.12,850.99v11.77c1.41-1.65,3.79-3.39,7.5-3.39c5.52,0,9.67,4.35,9.67,10.16c0,5.8-4.15,10.16-9.67,10.16
			c-3.71,0-6.08-1.73-7.82-3.71v3.22h-2.9v-28.21H431.12z M438.25,862.35c-3.46,0-6.04,2.26-7.13,4.75v4.84
			c1.09,2.5,3.67,4.75,7.13,4.75c3.75,0,6.81-2.74,6.81-7.17C445.07,865.09,442,862.35,438.25,862.35z"/>
		<path class="st8" d="M466.92,859.85h3.42l-9.51,22.25c-2.01,4.67-4.47,6.45-7.29,6.45c-0.69,0-1.37-0.08-2.1-0.28v-2.78
			c0.56,0.16,1.13,0.24,1.69,0.24c2.18,0,3.75-1.57,5-4.71l0.72-1.77l-9.19-19.38h3.43l7.29,15.68L466.92,859.85z"/>
		<path class="st8" d="M486.56,853.04v6.81h7.74v2.98h-7.74v9.99c0,2.94,1.33,3.83,4.15,3.83c1.53,0,2.98-0.36,4.27-0.89v2.98
			c-1.45,0.52-3.35,0.89-5.2,0.89c-3.75,0-6.41-2.01-6.41-6.25v-10.56h-3.63v-2.98h3.63v-6L486.56,853.04z"/>
		<path class="st8" d="M501.84,850.99v11.32c1.37-1.53,3.79-2.94,6.65-2.94c4.63,0,8.06,3.18,8.06,7.9v11.93h-3.22v-11.52
			c0-3.63-2.22-5.32-5.2-5.32c-2.86,0-5,1.93-6.29,3.87v12.98h-3.22v-28.21H501.84z"/>
		<path class="st8" d="M530.59,859.37c7.46,0,10.2,6.08,8.99,11.57h-15.39c0.4,4.07,4.07,5.76,7.98,5.76c2.38,0,4.71-0.65,6.37-1.57
			v3.14c-1.77,0.93-4.31,1.41-6.85,1.41c-5.72,0-10.72-3.26-10.72-10.16C520.96,862.76,525.99,859.37,530.59,859.37z M530.79,862.35
			c-3.3,0-6.37,1.97-6.61,5.76h12.53C536.99,866.06,535.71,862.35,530.79,862.35z"/>
		<path class="st8" d="M565.66,859.45v3.22c-3.79-0.44-6.85,1.37-8.02,4.47v12.05h-3.23v-19.34h2.9v3.43
			C558.85,860.74,562.28,859.17,565.66,859.45z"/>
		<path class="st8" d="M576.75,859.37c7.46,0,10.2,6.08,8.99,11.57h-15.39c0.4,4.07,4.07,5.76,7.98,5.76c2.38,0,4.71-0.65,6.37-1.57
			v3.14c-1.77,0.93-4.31,1.41-6.85,1.41c-5.72,0-10.72-3.26-10.72-10.16C567.12,862.76,572.16,859.37,576.75,859.37z M576.96,862.35
			c-3.3,0-6.37,1.97-6.61,5.76h12.53C583.16,866.06,581.87,862.35,576.96,862.35z"/>
		<path class="st8" d="M607.76,876.66c0.48,0,1.01-0.12,1.49-0.28V879c-0.76,0.28-1.61,0.44-2.42,0.44c-1.57,0-2.98-0.64-3.55-2.34
			c-1.93,1.61-4.39,2.58-7.54,2.58c-3.43,0-6.81-1.81-6.81-5.88c0-5,4.59-6.53,8.74-6.53c1.69,0,3.75,0.24,5.36,0.61v-0.69
			c0-2.9-1.97-4.84-5.52-4.84c-2.98,0-5.36,0.73-7.05,1.45v-3.14c1.53-0.52,4.19-1.29,7.37-1.29c5.16,0,8.42,2.82,8.42,8.22v7.58
			C606.26,876.34,606.91,876.66,607.76,876.66z M596.43,876.9c2.46,0,4.92-1.01,6.61-2.82v-3.55c-1.37-0.28-3.34-0.56-4.92-0.56
			c-2.82,0-5.88,0.85-5.88,3.67C592.24,875.89,594.3,876.9,596.43,876.9z"/>
		<path class="st8" d="M631.54,850.99v28.21h-2.9v-3.22c-1.73,1.98-4.11,3.71-7.82,3.71c-5.52,0-9.67-4.35-9.67-10.16
			c0-5.8,4.15-10.16,9.67-10.16c3.71,0,6.09,1.73,7.5,3.39v-11.77H631.54z M621.19,862.35c-3.75,0-6.81,2.74-6.81,7.17
			c0,4.43,3.06,7.17,6.81,7.17c3.46,0,6.04-2.26,7.13-4.75v-4.84C627.23,864.61,624.65,862.35,621.19,862.35z"/>
		<path class="st8" d="M654.73,876.66c0.48,0,1.01-0.12,1.49-0.28V879c-0.76,0.28-1.61,0.44-2.42,0.44c-1.57,0-2.98-0.64-3.55-2.34
			c-1.94,1.61-4.39,2.58-7.54,2.58c-3.42,0-6.81-1.81-6.81-5.88c0-5,4.59-6.53,8.74-6.53c1.69,0,3.75,0.24,5.36,0.61v-0.69
			c0-2.9-1.98-4.84-5.52-4.84c-2.98,0-5.36,0.73-7.05,1.45v-3.14c1.53-0.52,4.19-1.29,7.38-1.29c5.16,0,8.42,2.82,8.42,8.22v7.58
			C653.24,876.34,653.88,876.66,654.73,876.66z M643.4,876.9c2.46,0,4.91-1.01,6.61-2.82v-3.55c-1.37-0.28-3.34-0.56-4.92-0.56
			c-2.82,0-5.88,0.85-5.88,3.67C639.21,875.89,641.27,876.9,643.4,876.9z"/>
		<path class="st8" d="M662.68,850.99v11.77c1.41-1.65,3.79-3.39,7.49-3.39c5.52,0,9.67,4.35,9.67,10.16
			c0,5.8-4.15,10.16-9.67,10.16c-3.71,0-6.08-1.73-7.82-3.71v3.22h-2.9v-28.21H662.68z M669.81,862.35c-3.46,0-6.04,2.26-7.13,4.75
			v4.84c1.09,2.5,3.67,4.75,7.13,4.75c3.75,0,6.81-2.74,6.81-7.17C676.62,865.09,673.56,862.35,669.81,862.35z"/>
		<path class="st8" d="M687.8,849.78v29.42h-3.22v-29.42H687.8z"/>
		<path class="st8" d="M702.15,859.37c7.46,0,10.19,6.08,8.99,11.57h-15.39c0.4,4.07,4.07,5.76,7.98,5.76
			c2.38,0,4.71-0.65,6.37-1.57v3.14c-1.77,0.93-4.31,1.41-6.85,1.41c-5.72,0-10.72-3.26-10.72-10.16
			C692.52,862.76,697.55,859.37,702.15,859.37z M702.35,862.35c-3.3,0-6.37,1.97-6.61,5.76h12.53
			C708.55,866.06,707.27,862.35,702.35,862.35z"/>
		<path class="st8" d="M735.13,859.37c2.18,0,4.31,0.48,5.97,1.57v3.14c-1.45-1.13-3.51-1.73-5.56-1.73c-3.75,0-7.66,2.09-7.66,7.17
			c0,4.96,3.79,7.17,7.58,7.17c2.09,0,4.23-0.6,5.84-1.57v3.22c-1.81,0.89-3.87,1.33-6.29,1.33c-5.08,0-10.36-3.18-10.36-10.08
			C724.65,862.55,730.09,859.37,735.13,859.37z"/>
		<path class="st8" d="M754.6,859.37c5.28,0,10.32,3.55,10.32,10.16s-5.04,10.16-10.32,10.16c-5.24,0-10.32-3.55-10.32-10.16
			S749.37,859.37,754.6,859.37z M754.6,862.43c-3.95,0-7.09,2.62-7.09,7.09c0,4.47,3.14,7.09,7.09,7.09c3.95,0,7.09-2.62,7.09-7.09
			C761.7,865.05,758.55,862.43,754.6,862.43z"/>
		<path class="st8" d="M779.44,859.37c4.63,0,8.06,3.18,8.06,7.9v11.93h-3.22v-11.52c0-3.63-2.22-5.32-5.2-5.32
			c-2.86,0-5,1.93-6.29,3.87v12.98h-3.22v-19.34h2.9v2.86C773.76,861.02,776.34,859.37,779.44,859.37z"/>
		<path class="st8" d="M797.46,853.04v6.81h7.74v2.98h-7.74v9.99c0,2.94,1.33,3.83,4.15,3.83c1.53,0,2.98-0.36,4.27-0.89v2.98
			c-1.45,0.52-3.34,0.89-5.2,0.89c-3.75,0-6.41-2.01-6.41-6.25v-10.56h-3.63v-2.98h3.63v-6L797.46,853.04z"/>
		<path class="st8" d="M817.83,859.37c7.46,0,10.2,6.08,8.99,11.57h-15.4c0.4,4.07,4.07,5.76,7.98,5.76c2.38,0,4.72-0.65,6.37-1.57
			v3.14c-1.77,0.93-4.31,1.41-6.85,1.41c-5.72,0-10.72-3.26-10.72-10.16C808.2,862.76,813.23,859.37,817.83,859.37z M818.03,862.35
			c-3.31,0-6.37,1.97-6.61,5.76h12.53C824.23,866.06,822.94,862.35,818.03,862.35z"/>
		<path class="st8" d="M841.49,859.37c4.63,0,8.06,3.18,8.06,7.9v11.93h-3.22v-11.52c0-3.63-2.22-5.32-5.2-5.32
			c-2.86,0-5,1.93-6.29,3.87v12.98h-3.22v-19.34h2.9v2.86C835.81,861.02,838.39,859.37,841.49,859.37z"/>
		<path class="st8" d="M859.52,853.04v6.81h7.74v2.98h-7.74v9.99c0,2.94,1.33,3.83,4.15,3.83c1.53,0,2.98-0.36,4.27-0.89v2.98
			c-1.45,0.52-3.34,0.89-5.2,0.89c-3.75,0-6.41-2.01-6.41-6.25v-10.56h-3.63v-2.98h3.63v-6L859.52,853.04z"/>
		<path class="st8" d="M890.6,859.37c5.28,0,10.32,3.55,10.32,10.16s-5.04,10.16-10.32,10.16c-5.24,0-10.32-3.55-10.32-10.16
			S885.36,859.37,890.6,859.37z M890.6,862.43c-3.95,0-7.09,2.62-7.09,7.09c0,4.47,3.14,7.09,7.09,7.09c3.95,0,7.09-2.62,7.09-7.09
			C897.69,865.05,894.55,862.43,890.6,862.43z"/>
		<path class="st8" d="M906.7,879.2v-16.36h-3.63v-2.98h3.63v-2.34c0-5.4,3.46-7.01,6.85-7.01c1.77,0,3.51,0.36,4.83,0.89v2.98
			c-1.09-0.52-2.62-0.89-4.07-0.89c-2.34,0-4.39,0.61-4.39,4.15v2.22h7.25v2.98h-7.25v16.36H906.7z"/>
		<path class="st8" d="M946.88,876.66c0.48,0,1.01-0.12,1.49-0.28V879c-0.77,0.28-1.61,0.44-2.42,0.44c-1.57,0-2.98-0.64-3.55-2.34
			c-1.93,1.61-4.39,2.58-7.54,2.58c-3.42,0-6.81-1.81-6.81-5.88c0-5,4.59-6.53,8.75-6.53c1.69,0,3.75,0.24,5.36,0.61v-0.69
			c0-2.9-1.97-4.84-5.52-4.84c-2.98,0-5.36,0.73-7.05,1.45v-3.14c1.53-0.52,4.19-1.29,7.37-1.29c5.16,0,8.42,2.82,8.42,8.22v7.58
			C945.39,876.34,946.04,876.66,946.88,876.66z M935.56,876.9c2.46,0,4.92-1.01,6.61-2.82v-3.55c-1.37-0.28-3.35-0.56-4.92-0.56
			c-2.82,0-5.88,0.85-5.88,3.67C931.37,875.89,933.43,876.9,935.56,876.9z"/>
		<path class="st8" d="M181.7,906.41c5.52,0,9.67,4.35,9.67,10.16c0,5.8-4.15,10.16-9.67,10.16c-3.71,0-6.08-1.73-7.5-3.39v11.77
			h-3.22v-28.21h2.9v3.22C175.62,908.14,177.99,906.41,181.7,906.41z M181.34,909.39c-3.46,0-6.04,2.26-7.13,4.75v4.84
			c1.09,2.5,3.67,4.75,7.13,4.75c3.75,0,6.81-2.74,6.81-7.17C188.15,912.13,185.09,909.39,181.34,909.39z"/>
		<path class="st8" d="M213.23,923.7c0.48,0,1.01-0.12,1.49-0.28v2.62c-0.76,0.28-1.61,0.44-2.42,0.44c-1.57,0-2.98-0.64-3.55-2.34
			c-1.94,1.61-4.39,2.58-7.54,2.58c-3.43,0-6.81-1.81-6.81-5.88c0-5,4.59-6.53,8.74-6.53c1.69,0,3.75,0.24,5.36,0.61v-0.69
			c0-2.9-1.98-4.83-5.52-4.83c-2.98,0-5.36,0.72-7.05,1.45v-3.14c1.53-0.52,4.19-1.29,7.38-1.29c5.16,0,8.42,2.82,8.42,8.22v7.58
			C211.74,923.38,212.38,923.7,213.23,923.7z M201.91,923.94c2.46,0,4.91-1.01,6.61-2.82v-3.55c-1.37-0.28-3.34-0.56-4.92-0.56
			c-2.82,0-5.89,0.85-5.89,3.67C197.71,922.93,199.77,923.94,201.91,923.94z"/>
		<path class="st8" d="M226.3,906.41c3.71,0,6.08,1.73,7.82,3.71v-3.22h2.9v19.34c0,6.65-5.2,9.35-10.56,9.35
			c-2.86,0-5.56-0.65-7.86-1.81v-3.14c2.3,1.29,4.79,1.97,7.46,1.97c4.11,0,7.78-1.57,7.74-6.37v-2.98
			c-1.41,1.73-3.79,3.47-7.5,3.47c-5.52,0-9.67-4.35-9.67-10.16C216.63,910.76,220.78,906.41,226.3,906.41z M226.66,909.39
			c-3.75,0-6.81,2.74-6.81,7.17c0,4.43,3.06,7.17,6.81,7.17c3.46,0,6.04-2.1,7.13-4.35v-5.24
			C232.7,911.65,230.12,909.39,226.66,909.39z"/>
		<path class="st8" d="M251.29,906.41c7.46,0,10.19,6.08,8.99,11.57h-15.4c0.4,4.07,4.07,5.76,7.98,5.76c2.38,0,4.71-0.64,6.37-1.57
			v3.14c-1.77,0.93-4.31,1.41-6.85,1.41c-5.72,0-10.72-3.26-10.72-10.16C241.66,909.8,246.7,906.41,251.29,906.41z M251.5,909.39
			c-3.31,0-6.37,1.97-6.61,5.76h12.53C257.7,913.1,256.41,909.39,251.5,909.39z"/>
		<path class="st8" d="M302.69,906.89l-6.61,19.34h-3.51l-5.24-14.95l-5.24,14.95h-3.51l-6.61-19.34h3.39l5,15.8l5.52-15.8h2.9
			l5.52,15.8l5-15.8H302.69z"/>
		<path class="st8" d="M309.64,898.03v11.32c1.37-1.53,3.79-2.94,6.65-2.94c4.63,0,8.06,3.18,8.06,7.9v11.93h-3.22v-11.53
			c0-3.63-2.22-5.32-5.2-5.32c-2.86,0-5,1.93-6.29,3.87v12.98h-3.22v-28.21H309.64z"/>
		<path class="st8" d="M338.39,906.41c7.46,0,10.19,6.08,8.99,11.57h-15.39c0.4,4.07,4.07,5.76,7.98,5.76
			c2.38,0,4.71-0.64,6.37-1.57v3.14c-1.77,0.93-4.31,1.41-6.85,1.41c-5.72,0-10.72-3.26-10.72-10.16
			C328.75,909.8,333.79,906.41,338.39,906.41z M338.59,909.39c-3.3,0-6.37,1.97-6.61,5.76h12.53
			C344.79,913.1,343.5,909.39,338.59,909.39z"/>
		<path class="st8" d="M362.05,906.41c4.63,0,8.06,3.18,8.06,7.9v11.93h-3.22v-11.53c0-3.63-2.21-5.32-5.2-5.32
			c-2.86,0-5,1.93-6.29,3.87v12.98h-3.22v-19.34h2.9v2.86C356.37,908.06,358.95,906.41,362.05,906.41z"/>
		<path class="st8" d="M389.19,896.82v29.42h-3.22v-29.42H389.19z"/>
		<path class="st8" d="M404.23,906.41c5.28,0,10.32,3.55,10.32,10.16c0,6.61-5.04,10.16-10.32,10.16c-5.24,0-10.32-3.55-10.32-10.16
			C393.91,909.96,398.99,906.41,404.23,906.41z M404.23,909.47c-3.95,0-7.09,2.62-7.09,7.09c0,4.47,3.14,7.09,7.09,7.09
			c3.95,0,7.09-2.62,7.09-7.09C411.32,912.09,408.17,909.47,404.23,909.47z"/>
		<path class="st8" d="M428.18,906.41c5.28,0,10.32,3.55,10.32,10.16c0,6.61-5.04,10.16-10.32,10.16c-5.24,0-10.32-3.55-10.32-10.16
			C417.86,909.96,422.94,906.41,428.18,906.41z M428.18,909.47c-3.95,0-7.09,2.62-7.09,7.09c0,4.47,3.14,7.09,7.09,7.09
			c3.95,0,7.09-2.62,7.09-7.09C435.27,912.09,432.12,909.47,428.18,909.47z"/>
		<path class="st8" d="M457.24,926.24l-7.09-8.3h-3.79v8.3h-3.22v-28.21h3.22v16.93h3.91l6.12-8.06h3.75l-7.33,9.63l8.22,9.71
			H457.24z"/>
		<path class="st8" d="M465.84,902.78c-1.13,0-2.1-0.69-2.1-2.06c0-1.33,0.97-2.06,2.1-2.06s2.09,0.72,2.09,2.06
			C467.93,902.1,466.97,902.78,465.84,902.78z M464.23,926.24v-19.34h3.22v19.34H464.23z"/>
		<path class="st8" d="M483.37,906.41c4.63,0,8.06,3.18,8.06,7.9v11.93h-3.23v-11.53c0-3.63-2.21-5.32-5.2-5.32
			c-2.86,0-5,1.93-6.29,3.87v12.98h-3.22v-19.34h2.9v2.86C477.69,908.06,480.27,906.41,483.37,906.41z"/>
		<path class="st8" d="M505.51,906.41c3.71,0,6.08,1.73,7.82,3.71v-3.22h2.9v19.34c0,6.65-5.2,9.35-10.56,9.35
			c-2.86,0-5.56-0.65-7.86-1.81v-3.14c2.3,1.29,4.79,1.97,7.46,1.97c4.11,0,7.78-1.57,7.74-6.37v-2.98
			c-1.41,1.73-3.79,3.47-7.49,3.47c-5.52,0-9.67-4.35-9.67-10.16C495.84,910.76,499.99,906.41,505.51,906.41z M505.87,909.39
			c-3.75,0-6.81,2.74-6.81,7.17c0,4.43,3.06,7.17,6.81,7.17c3.47,0,6.05-2.1,7.13-4.35v-5.24
			C511.92,911.65,509.34,909.39,505.87,909.39z"/>
		<path class="st8" d="M549.45,923.7c0.48,0,1.01-0.12,1.49-0.28v2.62c-0.77,0.28-1.61,0.44-2.42,0.44c-1.57,0-2.98-0.64-3.55-2.34
			c-1.93,1.61-4.39,2.58-7.54,2.58c-3.42,0-6.81-1.81-6.81-5.88c0-5,4.59-6.53,8.75-6.53c1.69,0,3.75,0.24,5.36,0.61v-0.69
			c0-2.9-1.97-4.83-5.52-4.83c-2.98,0-5.36,0.72-7.05,1.45v-3.14c1.53-0.52,4.19-1.29,7.38-1.29c5.16,0,8.42,2.82,8.42,8.22v7.58
			C547.96,923.38,548.61,923.7,549.45,923.7z M538.13,923.94c2.46,0,4.92-1.01,6.61-2.82v-3.55c-1.37-0.28-3.34-0.56-4.92-0.56
			c-2.82,0-5.88,0.85-5.88,3.67C533.94,922.93,535.99,923.94,538.13,923.94z"/>
		<path class="st8" d="M558.49,900.08v6.81h7.74v2.98h-7.74v9.99c0,2.94,1.33,3.83,4.15,3.83c1.53,0,2.98-0.37,4.27-0.89v2.98
			c-1.45,0.52-3.34,0.89-5.2,0.89c-3.75,0-6.41-2.01-6.41-6.25v-10.56h-3.63v-2.98h3.63v-6L558.49,900.08z"/>
		<path class="st8" d="M582.28,902.78c-1.13,0-2.1-0.69-2.1-2.06c0-1.33,0.97-2.06,2.1-2.06c1.13,0,2.09,0.72,2.09,2.06
			C584.38,902.1,583.41,902.78,582.28,902.78z M580.67,926.24v-19.34h3.22v19.34H580.67z"/>
		<path class="st8" d="M594.41,900.08v6.81h7.74v2.98h-7.74v9.99c0,2.94,1.33,3.83,4.15,3.83c1.53,0,2.98-0.37,4.27-0.89v2.98
			c-1.45,0.52-3.35,0.89-5.2,0.89c-3.75,0-6.41-2.01-6.41-6.25v-10.56h-3.63v-2.98h3.63v-6L594.41,900.08z"/>
		<path class="st8" d="M612.72,906.41c2.58,0,5.04,0.69,6.85,1.65v3.06c-1.61-1.05-4.31-1.81-6.65-1.81c-2.1,0-4.31,0.68-4.31,2.58
			c0,4.19,12.29,2.42,12.29,9.39c0,4.03-3.79,5.44-7.98,5.44c-2.74,0-5.68-0.72-7.5-1.89v-3.14c1.97,1.33,4.92,2.06,7.34,2.06
			c2.74,0,4.92-0.44,4.92-2.38c0-4.07-12.33-2.46-12.33-9.39C605.34,907.98,609.09,906.41,612.72,906.41z"/>
		<path class="st8" d="M638.61,896.82v29.42h-3.22v-29.42H638.61z"/>
		<path class="st8" d="M661.86,923.7c0.48,0,1.01-0.12,1.49-0.28v2.62c-0.77,0.28-1.61,0.44-2.42,0.44c-1.57,0-2.98-0.64-3.55-2.34
			c-1.93,1.61-4.39,2.58-7.54,2.58c-3.42,0-6.81-1.81-6.81-5.88c0-5,4.59-6.53,8.74-6.53c1.69,0,3.75,0.24,5.36,0.61v-0.69
			c0-2.9-1.97-4.83-5.52-4.83c-2.98,0-5.36,0.72-7.05,1.45v-3.14c1.53-0.52,4.19-1.29,7.37-1.29c5.16,0,8.42,2.82,8.42,8.22v7.58
			C660.37,923.38,661.02,923.7,661.86,923.7z M650.54,923.94c2.46,0,4.92-1.01,6.61-2.82v-3.55c-1.37-0.28-3.34-0.56-4.92-0.56
			c-2.82,0-5.88,0.85-5.88,3.67C646.35,922.93,648.4,923.94,650.54,923.94z"/>
		<path class="st8" d="M680.33,906.89h3.42l-9.51,22.25c-2.01,4.67-4.47,6.45-7.29,6.45c-0.68,0-1.37-0.08-2.09-0.28v-2.78
			c0.56,0.16,1.13,0.24,1.69,0.24c2.18,0,3.75-1.57,5-4.71l0.72-1.77l-9.19-19.38h3.42l7.3,15.68L680.33,906.89z"/>
		<path class="st8" d="M695.61,906.41c5.28,0,10.32,3.55,10.32,10.16c0,6.61-5.04,10.16-10.32,10.16c-5.24,0-10.32-3.55-10.32-10.16
			C685.3,909.96,690.38,906.41,695.61,906.41z M695.61,909.47c-3.95,0-7.09,2.62-7.09,7.09c0,4.47,3.14,7.09,7.09,7.09
			c3.95,0,7.09-2.62,7.09-7.09C702.71,912.09,699.56,909.47,695.61,909.47z"/>
		<path class="st8" d="M728.27,906.89v19.34h-2.9v-2.86c-1.29,1.69-3.87,3.35-6.97,3.35c-5.04,0-8.06-3.18-8.06-7.9v-11.93h3.22
			v11.53c0,3.63,1.81,5.32,5.2,5.32c2.86,0,5-1.93,6.29-3.87v-12.98H728.27z"/>
		<path class="st8" d="M738.72,900.08v6.81h7.74v2.98h-7.74v9.99c0,2.94,1.33,3.83,4.15,3.83c1.53,0,2.98-0.37,4.27-0.89v2.98
			c-1.45,0.52-3.35,0.89-5.2,0.89c-3.75,0-6.41-2.01-6.41-6.25v-10.56h-3.63v-2.98h3.63v-6L738.72,900.08z"/>
		<path class="st8" d="M752.15,926.6c-1.13,0-2.14-0.69-2.14-2.06c0-1.33,1.01-2.01,2.14-2.01c1.13,0,2.09,0.69,2.09,2.01
			C754.24,925.91,753.27,926.6,752.15,926.6z"/>
	</g>
	<linearGradient id="SVGID_2_" gradientUnits="userSpaceOnUse" x1="168" y1="1112.356" x2="571.2002" y2="1112.356">
		<stop  offset="5.181000e-03" style="stop-color:#7B27AB"/>
		<stop  offset="1" style="stop-color:#AE69D1"/>
	</linearGradient>
	<path class="st9" d="M218.4,1061.96h302.4c27.84,0,50.4,22.57,50.4,50.4l0,0c0,27.83-22.56,50.4-50.4,50.4H218.4
		c-27.84,0-50.4-22.56-50.4-50.4l0,0C168,1084.52,190.56,1061.96,218.4,1061.96z"/>
	<g class="st4">
		<path class="st5" d="M249.51,1089.97c4.03,0,8.01,0.86,11.4,2.47v5.97c-2.85-1.83-6.67-2.8-10.54-2.8
			c-7.37,0-14.79,4.03-14.79,13.88c0,10.76,7.8,13.93,14.63,13.93c2.1,0,4.14-0.38,5.65-1.08v-14.25h5.97v18.39
			c-3.6,1.61-7.85,2.53-12,2.53c-10.43,0-20.54-5.49-20.54-19.52C229.29,1096.21,239.4,1089.97,249.51,1089.97z"/>
		<path class="st5" d="M279.94,1101.81c10.27,0,13.82,8.28,12.16,15.76h-19.42c0.64,4.63,5.16,6.56,9.89,6.56
			c3.12,0,5.97-0.75,8.17-1.83v4.95c-2.37,1.13-5.65,1.78-9.25,1.78c-7.91,0-14.63-4.52-14.63-13.61
			C266.87,1106.06,273.97,1101.81,279.94,1101.81z M280.21,1106.59c-3.87,0-7.37,2.31-7.58,6.67h14.31
			C287.25,1111,285.85,1106.59,280.21,1106.59z"/>
		<path class="st5" d="M305.53,1093.31v9.2h9.36v5.05h-9.36v11.83c0,3.39,1.56,4.52,4.89,4.52c1.88,0,3.6-0.38,5.22-1.02v4.95
			c-1.94,0.7-4.41,1.13-6.94,1.13c-5,0-8.87-2.47-8.87-8.5v-12.91h-4.63v-5.05h4.63v-7.8L305.53,1093.31z"/>
		<path class="st5" d="M341.92,1101.81c3.55,0,6.78,0.91,9.3,2.21v5.05c-2.15-1.45-5.86-2.53-8.93-2.53c-2.31,0-4.79,0.7-4.79,2.8
			c0,5,15.54,2.69,15.54,12.1c0,5.7-5.27,7.58-11.13,7.58c-3.76,0-7.58-0.91-10.11-2.47v-5.11c2.69,1.78,6.62,2.74,9.84,2.74
			c3.23,0,5.59-0.54,5.59-2.63c0-4.79-15.6-2.8-15.6-12.05C331.65,1103.85,336.81,1101.81,341.92,1101.81z"/>
		<path class="st5" d="M365.84,1093.31v9.2h9.36v5.05h-9.36v11.83c0,3.39,1.56,4.52,4.89,4.52c1.88,0,3.6-0.38,5.22-1.02v4.95
			c-1.94,0.7-4.41,1.13-6.94,1.13c-5,0-8.88-2.47-8.88-8.5v-12.91h-4.62v-5.05h4.62v-7.8L365.84,1093.31z"/>
		<path class="st5" d="M404.5,1124.23c0.59,0,1.18-0.16,1.72-0.32v4.14c-1.08,0.43-2.37,0.64-3.66,0.64c-2.37,0-4.25-0.91-5.16-3.01
			c-2.53,2.04-5.7,3.33-9.74,3.33c-4.68,0-9.03-2.58-9.03-7.91c0-6.62,6.13-8.66,11.51-8.66c2.21,0,4.68,0.32,6.72,0.75v-0.91
			c0-3.23-2.37-5.48-6.78-5.48c-3.82,0-6.99,0.97-9.31,1.99v-5.27c2.04-0.7,5.76-1.72,9.9-1.72c7.31,0,11.94,3.5,11.94,11.29v9.25
			C402.62,1123.8,403.48,1124.23,404.5,1124.23z M384.55,1120.74c0,2.53,2.26,3.82,4.84,3.82c2.74,0,5.43-1.02,7.48-3.06v-4.36
			c-1.56-0.32-3.76-0.65-5.59-0.65C387.99,1116.49,384.55,1117.51,384.55,1120.74z"/>
		<path class="st5" d="M426.16,1101.97v5.65c-4.63-0.64-8.66,1.4-10.22,5.06v15.65h-5.75v-25.81h5.11v4.25
			C417.29,1103.58,421.48,1101.54,426.16,1101.97z"/>
		<path class="st5" d="M438.09,1093.31v9.2h9.36v5.05h-9.36v11.83c0,3.39,1.56,4.52,4.9,4.52c1.88,0,3.6-0.38,5.22-1.02v4.95
			c-1.94,0.7-4.41,1.13-6.94,1.13c-5,0-8.87-2.47-8.87-8.5v-12.91h-4.63v-5.05h4.63v-7.8L438.09,1093.31z"/>
		<path class="st5" d="M464.33,1101.81c10.27,0,13.82,8.28,12.15,15.76h-19.42c0.65,4.63,5.16,6.56,9.9,6.56
			c3.12,0,5.97-0.75,8.17-1.83v4.95c-2.37,1.13-5.65,1.78-9.25,1.78c-7.91,0-14.63-4.52-14.63-13.61
			C451.26,1106.06,458.36,1101.81,464.33,1101.81z M464.6,1106.59c-3.87,0-7.37,2.31-7.58,6.67h14.31
			C471.64,1111,470.25,1106.59,464.6,1106.59z"/>
		<path class="st5" d="M508.58,1090.67v37.65h-5.16v-4.09c-1.99,2.53-5.06,4.79-9.9,4.79c-7.8,0-12.8-6.19-12.8-13.61
			c0-7.42,5-13.61,12.8-13.61c4.52,0,7.53,1.99,9.31,4.03v-15.17H508.58z M494.54,1106.86c-4.63,0-8.01,3.5-8.01,8.55
			c0,5.06,3.39,8.55,8.01,8.55c4.03,0,6.99-2.58,8.23-5.43v-6.29C501.53,1109.44,498.58,1106.86,494.54,1106.86z"/>
	</g>
	<g class="st4">
		<rect x="171.63" y="1419.7" class="st7" width="164.37" height="3.36"/>
		<g>
			<g>
				<polygon class="st7" points="182.78,1407.64 185.07,1410.1 172.93,1421.38 185.07,1432.66 182.78,1435.12 168,1421.38 				"/>
			</g>
		</g>
	</g>
	<g class="st4">
		<rect x="420" y="1419.7" class="st7" width="164.37" height="3.36"/>
		<g>
			<g>
				<polygon class="st7" points="573.22,1435.12 570.93,1432.66 583.07,1421.38 570.93,1410.1 573.22,1407.64 588,1421.38 				"/>
			</g>
		</g>
	</g>
</g>
<g>
	<g>
		<path class="st10" d="M1200.71,1430.18c-370.95-272.07-168.76-441.47-10.41-473.01c158.35-31.55,115.08-227.61,229.11-331.44
			c74.13-67.5,299.91-125.85,561.02,26.37c261.12,152.22,583.94,143.86,705.88,223.36c154.99,101.05,161.73,336.77,56.69,447.73
			c-115.09,121.57-161.14,117.55-161.14,117.55L1200.71,1430.18z"/>
		<g>
			<rect x="1141.77" y="600.76" class="st5" width="426.89" height="611.11"/>
			<g>
				<path class="st11" d="M1571.48,1214.68h-432.51V597.95h432.51V1214.68z M1144.58,1209.06h421.28V603.57h-421.28V1209.06z"/>
			</g>
			<path class="st12" d="M1530.54,764.12h-272.55c-0.08,0-0.16-0.07-0.16-0.16v-10.59c0-0.08,0.07-0.16,0.16-0.16h272.55
				c0.08,0,0.16,0.07,0.16,0.16v10.59C1530.69,764.05,1530.62,764.12,1530.54,764.12z"/>
			<path class="st12" d="M1530.54,783.65h-272.55c-0.08,0-0.16-0.07-0.16-0.16V772.9c0-0.09,0.07-0.16,0.16-0.16h272.55
				c0.08,0,0.16,0.07,0.16,0.16v10.59C1530.69,783.58,1530.62,783.65,1530.54,783.65z"/>
			<path class="st12" d="M1530.54,840.12h-272.55c-0.08,0-0.16-0.07-0.16-0.16v-10.59c0-0.08,0.07-0.16,0.16-0.16h272.55
				c0.08,0,0.16,0.07,0.16,0.16v10.59C1530.69,840.05,1530.62,840.12,1530.54,840.12z"/>
			<path class="st12" d="M1530.54,859.64h-272.55c-0.08,0-0.16-0.07-0.16-0.16V848.9c0-0.09,0.07-0.16,0.16-0.16h272.55
				c0.08,0,0.16,0.07,0.16,0.16v10.59C1530.69,859.57,1530.62,859.64,1530.54,859.64z"/>
			<path class="st12" d="M1530.54,929.57h-272.55c-0.08,0-0.16-0.07-0.16-0.15v-10.59c0-0.09,0.07-0.16,0.16-0.16h272.55
				c0.08,0,0.16,0.07,0.16,0.16v10.59C1530.69,929.5,1530.62,929.57,1530.54,929.57z"/>
			<path class="st12" d="M1530.54,949.1h-272.55c-0.08,0-0.16-0.07-0.16-0.16v-10.59c0-0.09,0.07-0.16,0.16-0.16h272.55
				c0.08,0,0.16,0.07,0.16,0.16v10.59C1530.69,949.03,1530.62,949.1,1530.54,949.1z"/>
			<path class="st12" d="M1530.54,999.42h-272.55c-0.08,0-0.16-0.07-0.16-0.16v-10.59c0-0.09,0.07-0.16,0.16-0.16h272.55
				c0.08,0,0.16,0.07,0.16,0.16v10.59C1530.69,999.35,1530.62,999.42,1530.54,999.42z"/>
			<path class="st12" d="M1530.54,1018.95h-272.55c-0.08,0-0.16-0.07-0.16-0.16v-10.59c0-0.08,0.07-0.16,0.16-0.16h272.55
				c0.08,0,0.16,0.07,0.16,0.16v10.59C1530.69,1018.88,1530.62,1018.95,1530.54,1018.95z"/>
			<g>
				<g class="st13">
					<path class="st12" d="M1206.96,790.87h-17.41c-7.57,0-13.73-6.16-13.73-13.73v-17.41c0-7.57,6.16-13.73,13.73-13.73h17.41
						c7.57,0,13.73,6.16,13.73,13.73v17.41C1220.69,784.71,1214.53,790.87,1206.96,790.87z M1189.55,753.86
						c-3.23,0-5.86,2.63-5.86,5.86v17.41c0,3.23,2.63,5.86,5.86,5.86h17.41c3.23,0,5.86-2.63,5.86-5.86v-17.41
						c0-3.23-2.63-5.86-5.86-5.86H1189.55z"/>
				</g>
				<g class="st13">
					<path class="st12" d="M1206.96,864.88h-17.41c-7.57,0-13.73-6.16-13.73-13.73v-17.41c0-7.57,6.16-13.73,13.73-13.73h17.41
						c7.57,0,13.73,6.16,13.73,13.73v17.41C1220.69,858.72,1214.53,864.88,1206.96,864.88z M1189.55,827.87
						c-3.23,0-5.86,2.63-5.86,5.86v17.41c0,3.23,2.63,5.86,5.86,5.86h17.41c3.23,0,5.86-2.63,5.86-5.86v-17.41
						c0-3.23-2.63-5.86-5.86-5.86H1189.55z"/>
				</g>
				<g>
					<path class="st14" d="M1199.34,854.52c-0.05,0-0.11,0-0.16,0c-0.99-0.05-1.91-0.53-2.51-1.32l-12.52-16.33
						c-1.13-1.48-0.85-3.59,0.62-4.73c1.48-1.13,3.59-0.85,4.73,0.62l10.09,13.17l27.76-29.74c1.27-1.36,3.4-1.43,4.76-0.16
						c1.36,1.27,1.43,3.4,0.17,4.76l-30.47,32.65C1201.17,854.13,1200.27,854.52,1199.34,854.52z"/>
				</g>
				<g>
					<path class="st12" d="M1206.96,952.07h-17.41c-7.26,0-13.17-5.91-13.17-13.17v-17.41c0-7.26,5.91-13.17,13.17-13.17h17.41
						c7.26,0,13.17,5.91,13.17,13.17v17.41C1220.13,946.16,1214.22,952.07,1206.96,952.07z M1189.55,915.06
						c-3.54,0-6.43,2.88-6.43,6.42v17.41c0,3.54,2.88,6.42,6.43,6.42h17.41c3.54,0,6.43-2.88,6.43-6.42v-17.41
						c0-3.54-2.88-6.42-6.43-6.42H1189.55z"/>
				</g>
				<g class="st13">
					<path class="st12" d="M1206.96,1026.64h-17.41c-7.57,0-13.73-6.16-13.73-13.73V995.5c0-7.57,6.16-13.73,13.73-13.73h17.41
						c7.57,0,13.73,6.16,13.73,13.73v17.41C1220.69,1020.48,1214.53,1026.64,1206.96,1026.64z M1189.55,989.63
						c-3.23,0-5.86,2.63-5.86,5.86v17.41c0,3.23,2.63,5.86,5.86,5.86h17.41c3.23,0,5.86-2.63,5.86-5.86V995.5
						c0-3.23-2.63-5.86-5.86-5.86H1189.55z"/>
				</g>
			</g>
			<g class="st15">
				<path class="st11" d="M1302.62,648.16l-20.9,48.29h-11.04l-20.83-48.29h12.07l14.69,34.49l14.9-34.49H1302.62z"/>
				<path class="st11" d="M1319.35,694.04c-4.02-2.16-7.17-5.14-9.45-8.93c-2.28-3.79-3.41-8.06-3.41-12.8c0-4.74,1.14-9,3.41-12.8
					c2.28-3.8,5.43-6.77,9.45-8.93c4.02-2.16,8.54-3.24,13.56-3.24s9.52,1.08,13.52,3.24c4,2.16,7.15,5.14,9.45,8.93
					c2.3,3.79,3.45,8.06,3.45,12.8c0,4.74-1.15,9-3.45,12.8c-2.3,3.79-5.45,6.77-9.45,8.93c-4,2.16-8.51,3.24-13.52,3.24
					S1323.37,696.2,1319.35,694.04z M1340.63,685.79c2.3-1.31,4.11-3.14,5.42-5.49c1.31-2.34,1.97-5.01,1.97-8
					c0-2.99-0.66-5.66-1.97-8c-1.31-2.34-3.12-4.17-5.42-5.48c-2.3-1.31-4.88-1.97-7.73-1.97c-2.85,0-5.43,0.66-7.73,1.97
					c-2.3,1.31-4.1,3.14-5.42,5.48c-1.31,2.35-1.97,5.01-1.97,8c0,2.99,0.66,5.66,1.97,8c1.31,2.35,3.12,4.17,5.42,5.49
					c2.3,1.31,4.88,1.97,7.73,1.97C1335.76,687.76,1338.33,687.1,1340.63,685.79z"/>
				<path class="st11" d="M1380.5,657.27h-15.45v-9.11h42.08v9.11h-15.45v39.18h-11.17V657.27z"/>
				<path class="st11" d="M1453.97,687.48v8.97h-37.39v-48.29h36.49v8.97h-25.39v10.49h22.42v8.69h-22.42v11.18H1453.97z"/>
			</g>
		</g>
		<g>
			<g>
				<path class="st5" d="M2576.54,689.76c-3.53-0.05-6.99,0.09-10.38,0.39c0.19-1.91,0.31-3.84,0.34-5.79
					c0.65-45.11-44.5-82.33-100.84-83.14c-46.19-0.66-85.55,23.36-98.6,56.9c-9.68-3.69-20.45-5.82-31.82-5.98
					c-42.92-0.62-78.11,27.01-78.61,61.71c-0.5,34.7,33.89,63.33,76.81,63.94c29.01,0.42,216.85-0.36,241.85,0
					c36.49,0.52,66.35-19.96,66.69-43.84C2642.34,710.06,2613.04,690.28,2576.54,689.76z"/>
				<path class="st11" d="M2463.81,606.81c0.59,0,1.19,0,1.78,0.01c53.15,0.76,95.9,35.5,95.3,77.44c-0.02,1.72-0.13,3.51-0.31,5.3
					l-0.69,6.77l6.77-0.6c2.79-0.25,5.63-0.37,8.43-0.37c0.45,0,0.91,0,1.37,0.01c16.57,0.24,32.01,4.63,43.48,12.37
					c10.74,7.25,16.58,16.52,16.44,26.11c-0.14,9.6-6.13,18.91-16.88,26.2c-11.51,7.81-26.72,12.11-42.83,12.11
					c-0.43,0-0.86,0-1.29-0.01c-4.61-0.07-15-0.1-31.75-0.1c-21.78,0-50.93,0.05-81.79,0.11c-31.46,0.06-63.99,0.12-88.75,0.12
					c-20.71,0-33.65-0.04-39.56-0.13c-39.75-0.57-71.72-26.7-71.27-58.25c0.21-14.87,7.61-28.87,20.82-39.42
					c13.54-10.81,31.57-16.76,50.77-16.76c0.44,0,0.89,0,1.33,0.01c10.46,0.15,20.52,2.04,29.9,5.61l5.21,1.98l2.02-5.2
					c2.93-7.55,7.35-14.66,13.12-21.15c5.75-6.46,12.71-12.16,20.69-16.92C2422.84,612.09,2442.79,606.81,2463.81,606.81
					L2463.81,606.81z M2463.81,601.2c-45.38,0-83.86,23.82-96.73,56.91c-9.68-3.69-20.45-5.82-31.82-5.98
					c-0.47-0.01-0.94-0.01-1.41-0.01c-42.28,0-76.71,27.4-77.2,61.72c-0.5,34.7,33.89,63.33,76.81,63.94
					c6.48,0.09,20.89,0.13,39.64,0.13c48.5,0,126.03-0.22,170.54-0.22c15.31,0,26.7,0.03,31.67,0.1c0.46,0.01,0.91,0.01,1.37,0.01
					c35.87,0,64.99-20.27,65.33-43.85c0.34-23.88-28.96-43.66-65.45-44.18c-0.48-0.01-0.97-0.01-1.45-0.01
					c-3.03,0-6.01,0.14-8.93,0.4c0.2-1.91,0.31-3.84,0.34-5.79c0.65-45.11-44.5-82.33-100.84-83.14
					C2465.05,601.2,2464.43,601.2,2463.81,601.2L2463.81,601.2z"/>
			</g>
			<g>
				<path class="st5" d="M2702.13,762.28c-2.2-0.03-4.37,0.05-6.48,0.24c0.12-1.19,0.2-2.4,0.21-3.62
					c0.4-28.16-27.78-51.4-62.96-51.91c-28.84-0.41-53.42,14.58-61.56,35.52c-6.05-2.3-12.77-3.63-19.87-3.73
					c-26.8-0.39-48.77,16.87-49.08,38.53c-0.31,21.66,21.16,39.54,47.96,39.92c18.11,0.26,135.39-0.22,151,0
					c22.78,0.33,41.43-12.46,41.64-27.37C2743.21,774.96,2724.91,762.61,2702.13,762.28z"/>
				<path class="st11" d="M2631.74,712.61c0.36,0,0.72,0,1.08,0.01c15.74,0.23,30.42,5.3,41.33,14.3
					c10.55,8.7,16.26,20.03,16.09,31.91c-0.01,1.01-0.08,2.07-0.18,3.13l-0.69,6.77l6.77-0.6c1.68-0.15,3.39-0.22,5.08-0.22
					c0.27,0,0.55,0,0.82,0c19.32,0.28,35.5,10.3,35.33,21.89c-0.08,5.21-3.58,10.55-9.61,14.64c-6.84,4.64-15.91,7.2-25.56,7.2
					c-0.26,0-0.52,0-0.77,0c-2.89-0.04-9.38-0.06-19.85-0.06c-13.6,0-31.8,0.03-51.07,0.07c-19.64,0.04-39.95,0.07-55.41,0.07
					c-12.92,0-20.99-0.03-24.67-0.08c-23.66-0.34-42.69-15.69-42.42-34.23c0.13-8.64,4.46-16.81,12.21-22.99
					c8.08-6.45,18.87-10.01,30.38-10.01c0.27,0,0.53,0,0.8,0.01c6.28,0.09,12.32,1.22,17.95,3.37l5.21,1.98l2.02-5.2
					c3.48-8.94,10.66-17.01,20.23-22.73C2606.92,715.79,2619,712.61,2631.74,712.61L2631.74,712.61z M2631.74,706.99
					c-28.34,0-52.36,14.87-60.4,35.53c-6.05-2.3-12.77-3.63-19.87-3.73c-0.29,0-0.59-0.01-0.88-0.01c-26.4,0-47.89,17.11-48.2,38.54
					c-0.31,21.66,21.16,39.54,47.96,39.92c4.05,0.06,13.05,0.08,24.75,0.08c30.28,0,78.69-0.14,106.48-0.14
					c9.56,0,16.67,0.02,19.77,0.06c0.29,0,0.57,0.01,0.85,0.01c22.39,0,40.58-12.66,40.79-27.38c0.21-14.91-18.08-27.26-40.87-27.58
					c-0.3,0-0.6-0.01-0.9-0.01c-1.89,0-3.75,0.09-5.58,0.25c0.12-1.19,0.2-2.4,0.21-3.62c0.4-28.16-27.78-51.4-62.96-51.91
					C2632.52,706.99,2632.13,706.99,2631.74,706.99L2631.74,706.99z"/>
			</g>
		</g>
		<path class="st16" d="M1135.03,1439.73c0,0-117.47-124.89-72.22-133.69c45.26-8.79,92.79,104.53,97.11,92.8
			c4.32-11.73-31.63-138.44-11.41-141.36c20.22-2.92,54,143.92,54,143.92s4.81-76.56,41.68-92.61
			c36.88-16.04-8.88,128.29-8.88,128.29L1135.03,1439.73z"/>
		<g>
			<path class="st16" d="M2202.23,1289.51c105.47-74.36,133.68-110.31,162.08-227.67c28.4-117.36,159.31-259.09,103.01-235.1
				c-56.3,23.98-153.59,127.52-149.65,228c3.93,100.48-10.67,129.4-27.22,152.47c-16.56,23.06-87.54,74.21-87.54,74.21
				L2202.23,1289.51z"/>
			<path class="st17" d="M2267.83,1239.26c0.37-0.32,0.73-0.64,1.09-0.96c6.33-8.38,38.62-51.75,46.17-73.97
				c8.38-24.66,1.66-88.5,27.67-134.83c26.01-46.32,38.13-90.12,50.51-123.36c16.35-43.89,63.63-77.13,87.83-79.25
				c-0.09-0.45-0.25-0.84-0.45-1.19l-5.96-1.41c-1.97,0.37-4.41,1.17-7.37,2.43c-56.3,23.98-153.59,127.52-149.66,228
				c3.93,100.48-10.67,129.4-27.22,152.47c-4.47,6.22-12.9,14.49-22.82,23.24L2267.83,1239.26z"/>
		</g>
		<g>
			<path class="st16" d="M2343.54,1137.54c30.43-120.12,353.83-248.36,324.47-210.94c-29.36,37.41-107.45,127.59-195.74,161.67
				c-88.29,34.08-121.93,83.59-143.34,144.07S2313.11,1257.65,2343.54,1137.54z"/>
			<g>
				<path class="st17" d="M2291.31,1281.05c-2.36,0-4.11-0.49-4.25-0.53c-0.89-0.26-1.41-1.19-1.15-2.09
					c0.26-0.89,1.19-1.41,2.09-1.15c0.05,0.01,5,1.38,8.73-1.03c2.26-1.45,3.68-4.05,4.24-7.72c3.58-23.6,11.62-41.57,18.71-57.43
					c4.35-9.73,8.11-18.13,10.18-26.34c2.98-11.81,11.63-32.6,26.99-55.55c18.76-28.03,43.21-52.62,70.72-71.13
					c32.34-21.75,55.27-34.09,87.01-51.15c31.36-16.86,70.38-37.85,135.55-76.85c0.8-0.48,1.83-0.22,2.31,0.58
					c0.48,0.8,0.22,1.83-0.58,2.31c-65.24,39.04-104.3,60.05-135.69,76.92c-31.65,17.02-54.52,29.32-86.72,50.98
					c-64.09,43.11-91.26,104.64-96.33,124.71c-2.14,8.5-6.14,17.43-10.37,26.9c-7,15.66-14.94,33.41-18.46,56.56
					c-0.71,4.68-2.65,8.06-5.77,10.06C2296.12,1280.64,2293.46,1281.05,2291.31,1281.05z"/>
			</g>
			<g>
				<path class="st17" d="M2519.87,1010.51c-3.24,0-5.12-0.13-5.31-0.14c-0.93-0.07-1.63-0.88-1.56-1.8
					c0.07-0.93,0.88-1.62,1.8-1.56c0.45,0.03,46.12,3.01,88.69-23.49c0.79-0.49,1.83-0.25,2.32,0.54c0.49,0.79,0.25,1.83-0.54,2.32
					c-22.75,14.16-46.18,19.93-61.83,22.28C2533.14,1010.2,2524.88,1010.51,2519.87,1010.51z"/>
			</g>
			<g>
				<path class="st17" d="M2508.67,1046.1c-29.1,0-46.58-5.6-46.82-5.68c-0.88-0.29-1.36-1.24-1.07-2.13
					c0.29-0.88,1.24-1.37,2.13-1.08c0.33,0.11,33.14,10.58,83.92,2.39c0.92-0.15,1.78,0.48,1.93,1.4s-0.48,1.78-1.4,1.93
					C2532.94,1045.26,2519.93,1046.1,2508.67,1046.1z"/>
			</g>
		</g>
		<path class="st16" d="M1422.85,1437.09c0,0-107.65-110.11-93.12-130.94c25.03-35.86,131.57,88.29,131.57,88.29
			s-149.24-334.22-121.82-406.49c27.41-72.28,139.15,160.15,139.15,160.15s107.24-517.76,154.8-511.2
			c47.56,6.55,23.15,269.86,23.15,269.86l323.85-117.27c0,0,140.92-135.77,174.62-115.07c33.7,20.7-59.69,148.26-45.57,142.9
			c14.12-5.36,159.45-163.47,202.49-129.35c43.04,34.12-172.24,177.28-172.24,177.28l144.19,485.45c0,0,116.03-251.63,245.68-225.42
			c66.44,13.43-136.51,197.8-136.51,197.8s127.13-92.75,177.14-65.59c50.02,27.16-138.88,96.63-114.12,106.83
			c24.76,10.2-53.36,60.75-53.36,60.75s61.68-37.71,88.96-22.1c27.29,15.61,18.26,36.77,18.26,36.77L1422.85,1437.09z"/>
		<path class="st16" d="M2642,1437.09c0,0,7.33-145,36.54-139.05c29.21,5.95-6.74,108.67,0,103.37
			c6.74-5.3,66.5-172.54,100.65-143.97c34.15,28.58-68.59,129.12-68.59,129.12s52.42-36.07,68.59-22.25
			c16.18,13.82-53.47,72.78-53.47,72.78H2642z"/>
		<g>
			<g>
				<path class="st16" d="M1438.58,1314.94c-0.1-2.87-71-140.98-136.21-126.33s-74.26,34.49-119.28,43.55
					c-32.12,6.46-58.92,5.53-58.92,5.53s31.38,34.95,92.94,31.14c43.53-2.69,87.22-41.26,118.86-47.26
					c31.64-6,70.72,52.02,70.72,52.02l17.46,31.24L1438.58,1314.94z"/>
				<g>
					<path class="st17" d="M1418.16,1274.88c-0.51,0-1.02-0.24-1.35-0.68c-36.65-49.27-66.86-74.6-95.07-79.71
						c-24.79-4.5-44.82,7.29-66.02,19.78c-5.36,3.15-10.9,6.42-16.51,9.39c-49.2,26.09-78.46,22.92-79.69,22.77
						c-0.92-0.11-1.58-0.95-1.47-1.87c0.11-0.92,0.95-1.58,1.88-1.47c0.29,0.03,29.56,3.13,77.7-22.41
						c5.55-2.94,11.06-6.19,16.38-9.32c21.76-12.81,42.31-24.91,68.33-20.19c29.1,5.28,59.98,31.02,97.17,81.02
						c0.56,0.75,0.4,1.8-0.35,2.36C1418.86,1274.77,1418.51,1274.88,1418.16,1274.88z"/>
				</g>
			</g>
			<g>
				<path class="st16" d="M1439.26,1316.77c-50.32-160.27-119.43-232.44-221.1-272.32c-101.67-39.88-111.66-56.5-111.66-56.5
					s60.81,128.38,121.99,158.04c61.18,29.66,138.4,39.88,156.54,60.27s44.2,101.64,44.2,101.64l11.29,12.27L1439.26,1316.77z"/>
				<g>
					<path class="st17" d="M1436.66,1308.78c-0.75,0-1.43-0.5-1.63-1.25c-0.07-0.26-7.15-26.48-22.92-59.94
						c-14.54-30.83-39.65-74.29-76.72-106.27c-36.7-31.66-69.38-45.89-100.98-59.66c-29.93-13.04-58.19-25.35-85.88-51.37
						c-0.68-0.64-0.71-1.7-0.07-2.38c0.64-0.68,1.7-0.71,2.38-0.07c27.27,25.62,55.27,37.82,84.92,50.73
						c31.83,13.86,64.75,28.2,101.83,60.19c37.54,32.38,62.92,76.31,77.6,107.45c15.89,33.72,23.03,60.17,23.1,60.44
						c0.24,0.9-0.29,1.82-1.19,2.06C1436.95,1308.76,1436.81,1308.78,1436.66,1308.78z"/>
				</g>
				<g>
					<path class="st17" d="M1271.73,1098.41c-0.17,0-0.34-0.03-0.5-0.08c-0.38-0.12-38.42-11.8-82.58-4.53
						c-0.92,0.15-1.79-0.47-1.94-1.39c-0.15-0.92,0.47-1.79,1.39-1.94c44.98-7.41,83.75,4.51,84.14,4.64
						c0.89,0.28,1.38,1.22,1.1,2.11C1273.11,1097.95,1272.44,1098.41,1271.73,1098.41z"/>
				</g>
				<g>
					<path class="st17" d="M1345.04,1149.22c-0.38,0-0.75-0.12-1.06-0.38c-34.97-28.43-63.96-28.28-126.2-25.22
						c-0.94,0.06-1.72-0.67-1.76-1.6c-0.05-0.93,0.67-1.72,1.6-1.77c63.13-3.1,92.56-3.24,128.49,25.97
						c0.72,0.59,0.83,1.65,0.24,2.37C1346.02,1149,1345.53,1149.22,1345.04,1149.22z"/>
				</g>
			</g>
		</g>
		<path class="st18" d="M2808.89,1440.74H1066.47c-2.02,0-3.65-1.63-3.65-3.65s1.64-3.65,3.65-3.65h1742.42
			c2.02,0,3.65,1.64,3.65,3.65S2810.9,1440.74,2808.89,1440.74z"/>
		<g>
			<path class="st19" d="M1838.92,673.65c14.56,9.27,42.18,41.13,59.79,59.67c17.62,18.54,27.17,28.83,27.17,28.83l-217.37-5.24
				c0,0,11.79-8.52,22.47-24.15c10.67-15.63,14.24-29.79,43.81-49.99C1804.56,662.43,1824.71,664.6,1838.92,673.65z"/>
			<path class="st20" d="M1800.07,681.08c10.67,0,17.41,41,22.47,49.99c5.05,8.99,31.66,10.67,31.66,10.67V724.8
				c0,0,4.84,12.73,8.21,20.78c9.55-6.08,22.19-13.38,34.55-14.23c1.13,0.62,22.47,22.66,22.47,22.66l-177.79,2.9
				c0,0-10.67-5.62-8.99-5.62c1.68,0,14.85-22.47,25.68-32.3C1769.17,709.17,1800.07,681.08,1800.07,681.08z"/>
			<path class="st19" d="M1859.04,748.77c0,0,34.82-14.88,52.24-12.36c17.41,2.53,21.91,12.36,21.91,12.36H1859.04z"/>
		</g>
		<g>
			<g>
				<path class="st21" d="M2048.94,1384.52v-123.23h-285.46v123.23h-92.81c-17.23,0-31.2,13.97-31.2,31.2v7.58
					c0,5.6,4.54,10.14,10.14,10.14h513.2c5.6,0,10.14-4.54,10.14-10.14v-7.58c0-17.23-13.97-31.2-31.2-31.2H2048.94z"/>
				<g>
					<polygon class="st22" points="1763.48,1345.76 2048.94,1323.75 2048.94,1271.84 1763.48,1274.87 					"/>
					<polygon class="st22" points="2048.94,1364.31 1763.48,1384.52 2048.94,1384.52 					"/>
				</g>
				<g>
					<path class="st21" d="M2344.54,1289.44h-876.65c-4.28,0-7.75-3.47-7.75-7.75V753.32c0-4.28,3.47-7.75,7.75-7.75h876.65
						c4.28,0,7.75,3.47,7.75,7.75v528.37C2352.28,1285.97,2348.81,1289.44,2344.54,1289.44z"/>
					<path class="st23" d="M2320.57,1234.4h-828.71c-3.67,0-6.65-2.98-6.65-6.65V774.4c0-3.67,2.98-6.65,6.65-6.65h828.71
						c3.67,0,6.65,2.98,6.65,6.65v453.36C2327.21,1231.43,2324.24,1234.4,2320.57,1234.4z"/>
				</g>
				<path class="st22" d="M1943.44,1271.84h-74.45c-0.11,0-0.21-0.09-0.21-0.2v-13.95c0-0.11,0.09-0.2,0.21-0.2h74.45
					c0.11,0,0.21,0.09,0.21,0.2v13.95C1943.64,1271.75,1943.55,1271.84,1943.44,1271.84z"/>
			</g>
			<g>
				<path class="st5" d="M2174.2,1047.08c-7.43-0.11-14.73,0.2-21.85,0.88c0.42-4.27,0.67-8.58,0.73-12.93
					c1.45-100.71-93.56-183.72-212.2-185.42c-97.27-1.4-180.22,52.31-207.74,127.19c-20.38-8.21-43.06-12.95-67.01-13.29
					c-90.38-1.3-164.55,60.45-165.66,137.91c-1.11,77.46,71.25,141.31,161.63,142.61c61.09,0.88,456.66-1.2,509.33-0.44
					c76.85,1.1,139.77-44.69,140.53-98C2312.72,1092.29,2251.05,1048.18,2174.2,1047.08z"/>
				<path class="st24" d="M1937.17,860.81c1.18,0,2.37,0.01,3.54,0.03c27.7,0.4,54.49,5.38,79.63,14.81
					c24.18,9.08,45.81,21.86,64.28,38c18.34,16.02,32.63,34.54,42.47,55.03c10.12,21.06,15.08,43.33,14.76,66.19
					c-0.06,3.9-0.28,7.94-0.68,12l-1.32,13.55l13.56-1.29c5.94-0.56,11.97-0.85,17.92-0.85c0.9,0,1.81,0.01,2.71,0.02
					c17.71,0.25,34.84,2.9,50.9,7.86c15.35,4.74,29.04,11.38,40.71,19.72c22.94,16.4,35.39,37.55,35.08,59.54
					c-0.16,10.88-3.39,21.61-9.6,31.89c-6.25,10.34-15.19,19.73-26.56,27.92c-11.71,8.42-25.3,15.06-40.41,19.73
					c-15.89,4.91-32.71,7.41-50.01,7.41c-0.85,0-1.71-0.01-2.56-0.02c-7.99-0.11-23.97-0.17-48.86-0.17
					c-46.65,0-116.41,0.19-190.27,0.4c-75.97,0.21-154.52,0.43-208.5,0.43c-31.23,0-51.41-0.07-61.69-0.22
					c-20.78-0.3-40.88-4.07-59.72-11.21c-18.12-6.86-34.31-16.53-48.13-28.72c-13.7-12.09-24.37-26.05-31.72-41.49
					c-7.54-15.84-11.24-32.6-10.99-49.79c0.48-33.75,16.27-65.47,44.45-89.3c13.9-11.76,30.08-20.99,48.09-27.45
					c18.71-6.71,38.59-10.11,59.09-10.11c0.88,0,1.76,0.01,2.63,0.02c22.02,0.32,43.2,4.52,62.97,12.48l10.75,4.33l4-10.87
					c6.26-17.04,15.67-33.1,27.95-47.72c12.2-14.52,26.95-27.3,43.85-38c17.16-10.86,36.12-19.3,56.37-25.1
					C1892.81,863.85,1914.79,860.81,1937.17,860.81L1937.17,860.81z M1937.17,849.57c-95.67,0-176.86,53.28-204.04,127.22
					c-20.38-8.21-43.06-12.95-67.01-13.29c-0.93-0.01-1.87-0.02-2.79-0.02c-89.11,0-161.76,61.27-162.86,137.93
					c-1.11,77.46,71.25,141.31,161.63,142.61c11.03,0.16,32.99,0.22,61.85,0.22c105.42,0,303.17-0.83,398.77-0.83
					c23.15,0,40.29,0.05,48.7,0.17c0.9,0.01,1.82,0.02,2.72,0.02c75.61,0,137.06-45.34,137.82-98.02
					c0.77-53.31-60.91-97.41-137.76-98.52c-0.96-0.01-1.92-0.02-2.88-0.02c-6.44,0-12.77,0.31-18.98,0.9
					c0.42-4.27,0.67-8.58,0.73-12.93c1.45-100.71-93.56-183.72-212.2-185.42C1939.64,849.58,1938.4,849.57,1937.17,849.57
					L1937.17,849.57z"/>
			</g>
			<g>
				<polygon class="st14" points="2109.48,1234.4 1690.44,1234.4 1690.44,1066.02 1802.54,1026.84 1990.25,1026.84 2109.48,1066.02 
									"/>
				<polygon class="st25" points="1802.54,1026.84 1690.44,1066.02 2109.48,1066.02 1990.25,1026.84 				"/>
				<polygon class="st14" points="1980.43,1051.44 1817,1051.44 1846.37,1035.64 1951.06,1035.64 				"/>
				<g>
					<path class="st26" d="M1956.24,1045.22h-113.39c-0.93,0-1.69-0.75-1.69-1.68c0-0.93,0.75-1.69,1.69-1.69h113.39
						c0.93,0,1.68,0.75,1.68,1.69C1957.92,1044.47,1957.17,1045.22,1956.24,1045.22z"/>
				</g>
				<path class="st25" d="M2013.16,1193.27h-230.55c-0.49,0-0.89-0.4-0.89-0.89v-60.87c0-0.49,0.4-0.89,0.89-0.89h230.55
					c0.49,0,0.89,0.4,0.89,0.89v60.87C2014.05,1192.87,2013.65,1193.27,2013.16,1193.27z"/>
			</g>
		</g>
		<g>
			<g>
				<path class="st27" d="M1826.85,893.58c5.94-9.1,61.35-25.33,65.31-24.94c3.96,0.4,32.68,64.91,38.7,90.25
					c6.02,25.33,6.82,29.29,6.82,29.29s-64.12,20.98-76,22.96c-11.88,1.98-11.88,1.98-11.88,1.98s-5.94-57-11.87-77.97
					C1832,914.16,1826.85,893.58,1826.85,893.58z"/>
				<g>
					<path class="st21" d="M1868.41,986.81c-0.61,0-1.18-0.41-1.35-1.03c-0.21-0.75,0.23-1.52,0.97-1.73l36.81-10.29
						c0.75-0.21,1.52,0.23,1.73,0.97c0.21,0.75-0.23,1.52-0.97,1.73l-36.81,10.29C1868.66,986.79,1868.54,986.81,1868.41,986.81z"/>
				</g>
				<g>
					<path class="st21" d="M1866.43,981.67c-0.61,0-1.17-0.4-1.35-1.02c-0.21-0.75,0.21-1.52,0.96-1.74l35.62-10.29
						c0.74-0.22,1.52,0.21,1.74,0.96c0.22,0.75-0.21,1.52-0.96,1.74l-35.62,10.29C1866.69,981.65,1866.56,981.67,1866.43,981.67z"/>
				</g>
				<g>
					<path class="st21" d="M1859.7,960.29c-0.62,0-1.18-0.41-1.35-1.03c-0.21-0.75,0.23-1.52,0.98-1.73l33.25-9.17
						c0.75-0.21,1.52,0.23,1.73,0.98c0.21,0.75-0.23,1.52-0.98,1.73l-33.25,9.17C1859.95,960.28,1859.83,960.29,1859.7,960.29z"/>
				</g>
				<g>
					<path class="st21" d="M1859.7,955.71c-0.61,0-1.18-0.41-1.35-1.03c-0.21-0.75,0.23-1.52,0.98-1.73l33.25-9.27
						c0.74-0.21,1.52,0.23,1.73,0.98c0.21,0.75-0.23,1.52-0.98,1.73l-33.25,9.27C1859.95,955.69,1859.83,955.71,1859.7,955.71z"/>
				</g>
				<g>
					<path class="st21" d="M1852.18,937.34c-0.61,0-1.17-0.4-1.35-1.01c-0.22-0.74,0.2-1.53,0.95-1.75l32.06-9.5
						c0.74-0.22,1.53,0.2,1.75,0.95c0.22,0.74-0.2,1.52-0.95,1.75l-32.06,9.5C1852.45,937.32,1852.31,937.34,1852.18,937.34z"/>
				</g>
				<g>
					<path class="st21" d="M1852.18,932.59c-0.36,0-0.72-0.14-0.99-0.41c-0.55-0.55-0.55-1.44,0-1.99
						c0.31-0.31,1.05-1.05,30.69-9.46c0.75-0.21,1.52,0.22,1.73,0.97c0.21,0.75-0.22,1.52-0.97,1.73
						c-10.62,3.01-27.94,8.06-29.65,8.9C1852.75,932.5,1852.47,932.59,1852.18,932.59z"/>
				</g>
				<g>
					<path class="st25" d="M1905.22,955.99c-0.13,0-0.27-0.02-0.4-0.05c-0.9-0.22-1.46-1.13-1.23-2.04l3.74-15.21
						c0.14-0.58,0.58-1.04,1.14-1.21c0.57-0.17,1.18-0.04,1.63,0.36l6.55,5.94c0.69,0.63,0.74,1.69,0.12,2.38
						c-0.63,0.69-1.69,0.74-2.38,0.12l-4.46-4.04l-3.07,12.46C1906.67,955.47,1905.98,955.99,1905.22,955.99z"/>
				</g>
			</g>
			<path class="st28" d="M1859.25,639.86l-29.61,27.93c-7.69,5.98-8.56,10.54-7.11,20.18c1.79,11.92,4.83,21.01,9.74,21.01
				c8.42,0,7.68-23.4,7.68-23.4l28.73-28.9L1859.25,639.86z"/>
			<path class="st29" d="M1859.25,639.86l-8.75,6.8c-3.8,11.31-5.27,24.43-4.94,33.26l23.11-23.25L1859.25,639.86z"/>
			<path class="st28" d="M1890.16,667.69c-6.18,12.08-16.88,22.13-25.18,19.99c-8.59-2.22-17.27-16.89-10.75-30.3
				c6.31-12.99,15.26-22.84,25.18-19.99C1889.33,640.24,1896.74,654.83,1890.16,667.69z"/>
			<path class="st28" d="M1840.51,844.16c10.11,15.35,19.47,26.21,22.47,37.82s-4.87,29.58-9.55,23.59
				c-4.68-5.99-11.05-7.59-12.54-24.34c-1.87-20.97-9.36-23.85-9.36-23.85L1840.51,844.16z"/>
			<path class="st19" d="M1802.87,677.35c11.23,5.41,11.8,97.53,29.21,137.41c17.41,39.88,17.79,40.15,17.79,40.15
				s-15.04,8.82-18.28,10.33c-3.25,1.52-41.21-47.67-48.37-75.2c-12.92-49.71-25.56-57.57-39.88-59.82
				c2.53-7.3,16.29-24.43,32.58-38.47C1792.2,677.71,1802.87,677.35,1802.87,677.35z"/>
			<path class="st28" d="M1890.36,745.58c0,0,10.3-7.76,19.3-6.64s26.69,9.27,23.04,12.08s-13.76,3.09-19.94,0
				C1906.58,747.92,1891.76,744.17,1890.36,745.58z"/>
			<path class="st30" d="M1836.96,660.89c12.9-0.96,19.16-10.4,20.33-11.82c1.17-1.42,1.89,11.26,4.37,12.17s5.28-6.02,8.35-11.9
				s7.19-5.35,7.56,0s4.04,21.46,12.78,25.09c7.07,2.93,13.06,4.05,13.06,4.05s-2.11-11.3-1.31-20.98
				c1.31-15.9-12.52-29.39-23.4-31.27c-8.69-1.5-23.74-0.27-29.96,11.98C1842.75,650,1836.96,660.89,1836.96,660.89z"/>
			<path class="st28" d="M1862.13,653.71c-1.25,3.79-4.42,6.15-7.1,5.27c-2.67-0.88-3.83-4.66-2.59-8.45
				c1.25-3.79,4.42-6.15,7.1-5.27C1862.22,646.14,1863.38,649.92,1862.13,653.71z"/>
		</g>
		<g>
			<path class="st30" d="M2447.16,939.38c-7.4-5.71-43.62,8.9-44.36,22.24s9.95,41.85,33.12,43.87
				c23.17,2.02,25.95-0.62,27.93-18.91C2465.83,968.29,2457.42,947.29,2447.16,939.38z"/>
			<path class="st25" d="M2546.81,1391.08c0,0,16.48,6.8,13.84,10.32c-2.64,3.52,5.27,23.62,5.27,23.62h-3.29l-6.26-12.93
				c0,0,2.64,15.65-2.97,18.08c-5.6,2.43-25.04,7.95-23.73,3.42c0.7-2.41,5.35-8.32,5.35-8.32L2546.81,1391.08z"/>
			<path class="st28" d="M2536.36,1394.02c2.87,7.94,0.24,30.01-3.72,34.3c-3.96,4.28,12.19,0.33,15.16-3.63
				c2.97-3.95,2.21-29.77,2.21-29.77L2536.36,1394.02z"/>
			<path class="st25" d="M2356.99,1394.44c0,0,11.27,13.81,7.28,15.65s-6.57,23.29-6.57,23.29l-2.9-1.56l0.63-14.35
				c0,0-5.11,15.02-11.19,14.5c-6.08-0.52-27.69-1.8-22.51-8.25c1.57-1.96,8.16-4.38,8.16-4.38L2356.99,1394.44z"/>
			<path class="st28" d="M2346.4,1392.07c-1.24,8.35-14.04,26.53-19.55,28.42c-5.51,1.89,10.58,6.08,15.06,4
				s16.08-25.15,16.08-25.15L2346.4,1392.07z"/>
			<path class="st28" d="M2433.45,1139.47c0,0,23.23,117.01,35.1,143.2c8.97,19.79,66.24,117.64,73.65,116.16
				c7.41-1.48,7.82-3.9,7.82-3.9s-21.83-77.91-33.52-93.97c-18.29-25.13-13.84-31.71-14.33-78.67c-0.5-46.96,0.02-47.87-12.35-76.04
				c-12.37-28.17-12.37-28.17-12.37-28.17L2433.45,1139.47z"/>
			<path class="st28" d="M2433.45,1129.8c0,0-54.27,127.16-58.03,140.51c-3.76,13.35-29.96,126.54-29.96,126.54s6.05,5.24,10.7,4.48
				c4.65-0.76,45.67-78.62,46.76-103.83c1.08-25.21,50.79-77.6,56.73-99.85C2465.58,1175.4,2433.45,1129.8,2433.45,1129.8z"/>
			<path class="st14" d="M2540.47,1188.75c0,0,7.66,63.76,7.17,82.3c-0.5,18.54,0.02,20.76,0.02,20.76l68.68-10.63
				c0,0-9.14-34.23-12.6-43.07C2600.28,1229.28,2540.47,1188.75,2540.47,1188.75z"/>
			<path class="st5" d="M2542.44,1191.1c0,0,3.77,28.54,7.57,58.7c3.8,30.15,4.05,37.57,4.05,37.57l62.28-8.46L2542.44,1191.1z"/>
			<path class="st14" d="M2574.57,1186.65c-3.21,0.86-36.58,0-36.58,0s14.09,46.09,22.49,96.02c35.84-3.76,64.75-4.94,64.75-4.94
				s-15.51-50.42-23.45-67.72c-7.94-17.3-11.4-23.35-11.4-23.35H2574.57z"/>
			<path class="st28" d="M2571.61,1162.25c0,0,7.91,13.65,9.39,22.79s-0.49,27.19-4.7,27.19c-4.2,0-4.45-1.54-7.17-11.4
				c-2.72-9.86-4.2-13.59-4.2-13.59H2559v-26.17L2571.61,1162.25z"/>
			<path class="st14" d="M2480.16,1122.76c1.32,1.69,22.16,36.33,25.46,66.98c3.3,30.65,2.64,82.38,2.64,82.38l-16.52,3.29
				l-9.84-67.22l-4.28,67.22c0,0-18.45,6.59-44.16,1.65c-25.7-4.94-54.04-22.41-54.04-22.41l50.09-120.61L2480.16,1122.76z"/>
			<path class="st31" d="M2461.63,1013.77c0,0,25.21,8.24,27.68,19.69c2.19,10.15-6.34,74.46-8.3,88.93
				c-0.25,1.82-1.4,3.38-3.07,4.15c-8.03,3.71-32.13,14.23-44.49,12.93c-13.34-1.41-30.36-73.66-28.67-81.21
				c2.47-11.07,20.27-38.15,34.11-44.04C2452.73,1008.33,2461.63,1013.77,2461.63,1013.77z"/>
			<path class="st28" d="M2444.32,976.51c0,0,8.65,32.99,13.59,34.97c4.94,1.98-13.59,30.5-24.47,29.72
				c-10.88-0.78,5.44-26.98,5.44-26.98l-10.87-33.44L2444.32,976.51z"/>
			<path class="st29" d="M2447.99,989.22c-2.67,10.47-6.26,15.35-10.76,19.9l-9.21-28.34l16.3-4.27
				C2444.32,976.51,2445.59,983.01,2447.99,989.22z"/>
			<path class="st28" d="M2407.99,969.04c-3.87,13.01-3.06,27.67,4.42,31.85c7.75,4.33,24.16-0.3,28.7-14.5
				c4.4-13.76,4.73-27.06-4.42-31.85C2427.55,949.75,2412.12,955.2,2407.99,969.04z"/>
			<path class="st5" d="M2277.17,964.25l13.51-38.65c0,0-55.47-44.4-85.74-49.24c-17.22-2.75-31.92,1.67-31.92,1.67l-28.08,53.16
				c0,0,50.96,5.85,70.76,22.04c19.8,16.18,40.65,35.4,40.65,35.4S2268.21,983.53,2277.17,964.25z"/>
			<path class="st28" d="M2292.33,973.48c0,0-11.19-11.34-13.84-16.07c-2.65-4.72-8.65-12.11-6.43-5.19
				c2.23,6.92,2.72,8.16,2.23,13.59c-0.5,5.44-4.45,7.66-4.45,7.66l18.29,9.64L2292.33,973.48z"/>
			<path class="st14" d="M2435.92,1014.22c0,0-79.58-4-87-7.41c-7.41-3.42-59.32-37.52-59.32-37.52s-8.4,11.13-8.9,11.49
				c-0.5,0.36,53.88,43.37,64.75,48.8s61.79,17.58,61.79,17.58s-9.39,49.84-13.35,61.61c-3.95,11.76-6.92,15.63-6.92,15.63
				s14.83,3.18,21.25-2.57c6.43-5.75,7.91-49.44,7.91-67.53C2416.15,1036.21,2435.92,1014.22,2435.92,1014.22z"/>
			<path class="st14" d="M2478.68,1018.71c0,0,17.55,5.72,35.1,22.51c17.55,16.79,43,39.68,47.95,52.92s12.85,70.81,12.85,70.81
				s-13.84,4.69-15.82,2.62c-1.98-2.08-15.57-52.48-22.49-61.12c-6.92-8.64-44.53-43.75-44.53-43.75l13.39,51.15
				c0,0-18.63,12.19-31.31,5.98c-12.68-6.21-18.2-22.6-26.56-42.58c-8.36-19.98,14.38-63.48,14.38-63.48L2478.68,1018.71z"/>
			<path class="st31" d="M2455.2,1005.04c0.82,0.99,6.43,8.73,6.43,8.73s-11.19,23.26-16.22,27.45c-5.03,4.19-11.46,2.54-11.46,2.54
				s-13.88-5.75-11.06-10.96c5.56-10.31,13.04-18.57,13.04-18.57l1.72-3.83l1.25,3.83c0,0-2.31,3.34-4.12,8.12
				c-1.81,4.78-1.48,16.81-2.31,18.29c-0.82,1.48,2.31,0.33,4.28-5.6c1.98-5.93,2.47-14.66,2.47-14.66s8.73-4.94,11.7-8.57
				C2453.88,1008.17,2455.2,1005.04,2455.2,1005.04z"/>
			<g>
				<g>
					<path class="st21" d="M2171.28,917.12c-0.25,0-0.5-0.07-0.72-0.2c-0.66-0.4-0.88-1.26-0.48-1.93l18.5-30.62
						c0.4-0.66,1.26-0.88,1.93-0.48c0.66,0.4,0.88,1.26,0.48,1.93l-18.5,30.62C2172.22,916.88,2171.76,917.12,2171.28,917.12z"/>
				</g>
				<g>
					<path class="st21" d="M2210.09,923.45c-0.26,0-0.53-0.07-0.77-0.23c-0.65-0.43-0.83-1.29-0.41-1.94l17.09-26.12
						c0.42-0.65,1.29-0.83,1.94-0.41c0.65,0.42,0.83,1.29,0.41,1.94l-17.09,26.12C2211,923.23,2210.55,923.45,2210.09,923.45z"/>
				</g>
				<g>
					<path class="st21" d="M2233.96,933.45c-0.13,0-0.27-0.02-0.4-0.06c-0.74-0.22-1.17-1-0.94-1.75c0.06-0.21,0.19-0.64,13.34-22.7
						c0.4-0.67,1.26-0.88,1.92-0.49c0.67,0.4,0.88,1.26,0.49,1.92c-5,8.39-12.58,21.16-13.11,22.2
						C2235.04,933.12,2234.52,933.45,2233.96,933.45z"/>
				</g>
				<g>
					<path class="st21" d="M2182.31,918.51c-0.24,0-0.48-0.06-0.71-0.19c-0.67-0.39-0.9-1.25-0.5-1.92l18.09-31.01
						c0.39-0.67,1.25-0.9,1.92-0.51c0.67,0.39,0.9,1.25,0.5,1.92l-18.09,31.01C2183.26,918.26,2182.79,918.51,2182.31,918.51z"/>
				</g>
				<g>
					<path class="st21" d="M2203.73,920.7c-0.25,0-0.51-0.07-0.74-0.21c-0.66-0.41-0.86-1.27-0.45-1.93
						c0.62-1,15.17-24.48,16.52-26.31c0.46-0.63,1.34-0.76,1.96-0.3c0.63,0.46,0.76,1.34,0.3,1.96c-1.03,1.4-11.18,17.71-16.4,26.13
						C2204.66,920.47,2204.2,920.7,2203.73,920.7z"/>
				</g>
				<g>
					<path class="st25" d="M2216.03,948.93c-0.8,0-1.52-0.58-1.66-1.4c-0.16-0.92,0.46-1.79,1.37-1.95l7.94-1.37l-7.41-15.22
						c-0.41-0.84-0.06-1.84,0.78-2.25c0.84-0.41,1.84-0.06,2.25,0.78l8.4,17.23c0.23,0.48,0.23,1.03-0.02,1.51
						c-0.24,0.47-0.69,0.8-1.21,0.89l-10.15,1.75C2216.22,948.92,2216.13,948.93,2216.03,948.93z"/>
				</g>
				<g>
					<path class="st21" d="M2229.06,929.66c-0.25,0-0.5-0.07-0.73-0.2c-0.66-0.4-0.88-1.27-0.47-1.93l12.77-21.07
						c0.4-0.66,1.27-0.88,1.93-0.47s0.88,1.27,0.47,1.93l-12.77,21.07C2230,929.42,2229.54,929.66,2229.06,929.66z"/>
				</g>
				<g>
					<path class="st21" d="M2251.65,951.49c-0.24,0-0.48-0.06-0.7-0.19c-0.67-0.39-0.9-1.25-0.51-1.92l14.26-24.69
						c0.39-0.67,1.25-0.9,1.92-0.51c0.67,0.39,0.9,1.25,0.51,1.92l-14.26,24.69C2252.61,951.24,2252.14,951.49,2251.65,951.49z"/>
				</g>
				<g>
					<path class="st21" d="M2261.44,954.26c-0.23,0-0.47-0.06-0.69-0.18c-0.68-0.38-0.91-1.24-0.53-1.91l12.13-21.49
						c0.38-0.68,1.24-0.91,1.91-0.53c0.68,0.38,0.91,1.24,0.53,1.91l-12.13,21.49C2262.41,954,2261.93,954.26,2261.44,954.26z"/>
				</g>
			</g>
			<path class="st30" d="M2405.77,962.61c6.67,13.59,36.51,12.68,36.29,14.5c-0.21,1.82,5.47,28.1,12.15,27.93
				c6.67-0.16-6.23-54.79-6.23-54.79l-27.63,1.24L2405.77,962.61z"/>
			<path class="st30" d="M2460.32,959.74c11.19-4.54,13.17-2.81,16.87,3.12c3.71,5.93,7.91,8.28,7.17,13.66
				c-0.74,5.37,0.49,10.92-1.73,16.3c-2.22,5.38-9.89,5.88-16.31,9.09c-6.43,3.21-9.49-6.19-9.49-6.19L2460.32,959.74z"/>
			<path class="st28" d="M2438.34,978.64c-0.99,4.07,0.47,7.91,3.26,8.59c2.79,0.68,5.84-2.07,6.83-6.14
				c0.99-4.07-0.47-7.91-3.26-8.59C2442.38,971.83,2439.32,974.58,2438.34,978.64z"/>
		</g>
		<g>
			<path class="st21" d="M1480.08,1407.29c0,0,3.6,13.9,15.85,17.41c12.25,3.51,24.19,10.33,6.98,10.54
				c-18.88,0.23-29.7-0.66-37.54-1.98c-7.85-1.32-2.71-15.14-1.46-21.73C1465.15,1404.95,1480.08,1407.29,1480.08,1407.29z"/>
			<path class="st21" d="M1380.25,1395.99c0,0-2.62,27.77,4.05,30.15c6.68,2.38,14.31,8.11,4.77,8.11s-21.34,2.25-24.43-8.11
				c-3.76-12.64-12.28-14.77-9.24-21.2c3.04-6.43,12.21-18.38,12.21-18.38L1380.25,1395.99z"/>
			<path class="st22" d="M1507.88,1106.33l-24.24,306.85c0,0-12.59,5.82-21.67,6.7c-9.08,0.88-27.85-147.05-26.26-170.7
				s-16.4-98.76-12.23-123.11S1507.88,1106.33,1507.88,1106.33z"/>
			<path class="st21" d="M1459.38,1107.95c1.71-0.23,3.43-0.43,5.16-0.62l41.88,16.2l-7.72,90.51
				c-20.07,44.11-44.08,85.74-56.15,112.66c-5.5-32.01-7.57-66.52-6.83-77.53c0.77-11.39-3.01-34.71-6.66-58.56L1459.38,1107.95z"/>
			<path class="st22" d="M1495.93,1152.69c-23.5,104.46-115.94,250.27-115.84,250.27c0.1,0-17.27-3-18.15-10.9
				c-0.88-7.9,9.91-105.09,33.41-127.96c23.5-22.87,25.1-131.45,25.1-131.45L1495.93,1152.69z"/>
			<path class="st24" d="M1440.52,1006.66c-26.43,26.58-43.39,72.3-43.62,83.61c-0.23,11.31,30.48,31.5,30.48,31.5L1440.52,1006.66z
				"/>
			<polygon class="st28" points="1470.26,947.99 1459.79,1000.08 1488.42,1030.9 1492.23,967.73 			"/>
			<path class="st11" d="M1459.79,983.83c0,0-13.5,4.74-28.53,42.89c-15.03,38.15-25.47,132.17-25.47,132.17
				s28.88,24.52,70.22,24.51c26.35-0.01,39.65-5.93,39.65-5.93s2.63-88.62,0-120.6C1513.02,1024.89,1472.83,983.03,1459.79,983.83z"
				/>
			<path class="st24" d="M1515.66,1056.88c-2.63-31.99-42.82-73.85-55.87-73.04c0,0-5.6,1.97-13.6,13.56
				c13.49-6.57,30.31,4.88,46.04,41.96c7.87,18.54,16.21,45.23,24.55,51.05C1516.67,1077.12,1516.34,1065.12,1515.66,1056.88z"/>
			<path class="st29" d="M1481.25,991.83c-8.51-9.91-11.66-25.05-12.83-34.69l1.65-8.23l2.13,0.83l20.03,18l-1.96,32.49
				C1487.47,998.24,1484.43,995.52,1481.25,991.83z"/>
			<path class="st28" d="M1476.8,959.46c3.29,15.5,17.56,24.07,29.42,21.56c11.85-2.51,14.44-17.53,11.16-33.03
				c-3.29-15.5-13.22-23.65-25.07-21.14C1480.45,929.36,1473.51,943.96,1476.8,959.46z"/>
			<path class="st11" d="M1463.83,972.07l-8.97,15.15l47.54,35.54c0,0-3.58-16.47-4.54-22.54
				C1496.91,994.17,1464.59,970.79,1463.83,972.07z"/>
			<path class="st32" d="M1520.14,916.32c19.97,6.28,3.64,31.44-2.77,31.67s-8.76-5.75-14.02-4.37c-5.27,1.38-10.24-7.99-13.46-5.94
				c-3.22,2.05-1.17,21.07,0,24.29c1.17,3.22-4.1,3.51-4.1,3.51s-2.15-13.46-5.46-12.58c-3.32,0.88-5.78,10.24-10.55,12.58
				s-4.77,2.34-4.77,2.34s-2.93-20.32-7.32-24.21c-4.39-3.89-1.64-17.35,4.59-19.99c6.23-2.63,7.74-14.63,16.35-15.51
				c8.61-0.88,15.64,4.98,27.05,3.51C1517.1,910.17,1514.55,914.56,1520.14,916.32z"/>
			<path class="st28" d="M1471.76,956.19c1.64,3.87,5.3,6.01,8.16,4.8c2.86-1.22,3.86-5.34,2.21-9.2c-1.64-3.87-5.3-6.01-8.16-4.8
				C1471.11,948.21,1470.12,952.33,1471.76,956.19z"/>
			<path class="st24" d="M1450.07,1012.17c0,0,48.99,54.48,66.63,71.34c0.24,15.69,0.12,33.97-0.11,50.22
				c-9.55-4.7-36.11-18.45-51.22-33.03C1446.7,1082.7,1438.37,1041.43,1450.07,1012.17z"/>
			<path class="st27" d="M1594.1,1083.92c3.23-20.12,39.74-78.67,53.53-85.42c7.6-3.73,76.23,7.84,76.23,7.84
				s-77.86,67.58-87.86,103.81c-8.94,32.36-7.84,44.61-7.84,44.61l-31.45-22.99C1596.71,1131.77,1589.23,1114.2,1594.1,1083.92z"/>
			<path class="st28" d="M1585.45,1083.48c0,0,11.72-14.51,16.39-13.11c4.67,1.4,6.44,1.62,10.54,1.4s4.39,5.7-1.46,16.34
				c-5.85,10.65-21.66,12.78-25.46,12.59C1581.65,1100.51,1585.45,1083.48,1585.45,1083.48z"/>
			<path class="st11" d="M1455.54,1000.23c-18.95,5.04-12.78,53.07-2.11,72.89c7.67,14.25,33.31,28.78,48.97,32.86
				c15.66,4.08,83.58-4.39,83.58-4.39s2.5-22.39-2.23-22.39s-60.81-1.3-75.88-14.92C1492.81,1050.65,1478.42,994.14,1455.54,1000.23
				z"/>
			<g>
				<path class="st27" d="M1596.71,1083.11c-5.05-3.24,6.63-21.87,6.63-21.87h13.46c0,0-4.33,5.1-10.68,10.24
					S1596.71,1083.11,1596.71,1083.11z"/>
				<g>
					<path class="st21" d="M1690.2,1025.31c-0.09,0-0.17-0.01-0.26-0.02l-32.04-6.08c-0.76-0.14-1.26-0.88-1.12-1.64
						c0.14-0.76,0.88-1.26,1.64-1.12l32.05,6.08c0.76,0.14,1.26,0.88,1.12,1.64C1691.45,1024.84,1690.86,1025.31,1690.2,1025.31z"/>
				</g>
				<g>
					<path class="st21" d="M1674.18,1042.75c-0.16,0-0.32-0.03-0.48-0.09l-25.34-9.33c-0.73-0.27-1.1-1.08-0.83-1.8
						c0.27-0.73,1.08-1.1,1.8-0.83l25.34,9.33c0.73,0.27,1.1,1.08,0.83,1.8C1675.29,1042.39,1674.75,1042.75,1674.18,1042.75z"/>
				</g>
				<g>
					<path class="st21" d="M1669.52,1047.61c-0.16,0-0.32-0.03-0.48-0.09c-7.7-2.8-22.59-8.19-23.85-8.57
						c-0.74-0.22-1.17-1-0.94-1.75s1-1.17,1.75-0.94c1.64,0.49,23.09,8.29,24,8.62c0.73,0.26,1.1,1.07,0.84,1.8
						C1670.63,1047.26,1670.09,1047.61,1669.52,1047.61z"/>
				</g>
				<g>
					<path class="st21" d="M1651.27,1069.02c-0.18,0-0.37-0.04-0.55-0.11c-7.63-3.24-20.25-8.48-21.62-8.75
						c-0.76-0.15-1.25-0.89-1.1-1.65c0.15-0.76,0.89-1.25,1.65-1.1c2.06,0.41,18.83,7.5,22.17,8.92c0.71,0.3,1.05,1.13,0.74,1.84
						C1652.34,1068.7,1651.82,1069.02,1651.27,1069.02z"/>
				</g>
				<g>
					<path class="st21" d="M1648.84,1073.58c-0.18,0-0.36-0.04-0.54-0.11l-21.49-8.98c-0.72-0.3-1.05-1.12-0.75-1.84
						c0.3-0.72,1.12-1.05,1.84-0.75l21.49,8.98c0.72,0.3,1.05,1.12,0.75,1.84C1649.91,1073.25,1649.39,1073.58,1648.84,1073.58z"/>
				</g>
				<g>
					<path class="st21" d="M1695.2,1020.04c-0.09,0-0.17-0.01-0.26-0.02l-33.69-6.35c-0.76-0.14-1.26-0.88-1.12-1.64
						c0.14-0.76,0.88-1.26,1.64-1.12l33.69,6.35c0.76,0.14,1.26,0.88,1.12,1.64C1696.45,1019.57,1695.86,1020.04,1695.2,1020.04z"/>
				</g>
				<g>
					<path class="st21" d="M1635.73,1087.89c-0.18,0-0.36-0.03-0.54-0.11l-15.41-6.35c-0.72-0.3-1.06-1.12-0.76-1.83
						c0.3-0.72,1.12-1.06,1.83-0.76l15.41,6.35c0.72,0.29,1.06,1.12,0.76,1.83C1636.8,1087.56,1636.28,1087.89,1635.73,1087.89z"/>
				</g>
				<g>
					<path class="st21" d="M1632.75,1094.52c-0.2,0-0.4-0.04-0.59-0.13l-14.33-6.62c-0.71-0.33-1.01-1.16-0.69-1.86
						c0.33-0.7,1.16-1.01,1.86-0.69l14.33,6.62c0.7,0.33,1.01,1.16,0.69,1.86C1633.79,1094.21,1633.28,1094.52,1632.75,1094.52z"/>
				</g>
				<g>
					<path class="st21" d="M1624.78,1119.39c-0.19,0-0.39-0.04-0.57-0.12l-19.6-8.79c-0.71-0.32-1.02-1.15-0.71-1.86
						c0.32-0.71,1.15-1.02,1.86-0.71l19.6,8.79c0.71,0.32,1.02,1.15,0.71,1.86C1625.83,1119.08,1625.31,1119.39,1624.78,1119.39z"/>
				</g>
				<g>
					<path class="st21" d="M1621.8,1125.33c-0.19,0-0.38-0.04-0.57-0.12c-17.82-7.89-18.2-8.14-18.32-8.23
						c-0.65-0.43-0.82-1.3-0.39-1.95c0.42-0.62,1.24-0.8,1.88-0.43c0.81,0.42,11.16,5.02,17.97,8.04c0.71,0.31,1.03,1.14,0.72,1.85
						C1622.86,1125.02,1622.34,1125.33,1621.8,1125.33z"/>
				</g>
				<g>
					<path class="st25" d="M1628.02,1036.54c-0.35,0-0.7-0.11-0.99-0.32c-0.51-0.37-0.77-0.99-0.67-1.61l1.35-9.06
						c0.14-0.92,1-1.55,1.92-1.42c0.92,0.14,1.55,1,1.42,1.92l-0.88,5.86l16.98-8.43c0.83-0.41,1.85-0.07,2.26,0.76
						c0.41,0.83,0.07,1.84-0.76,2.26l-19.87,9.87C1628.54,1036.48,1628.28,1036.54,1628.02,1036.54z"/>
				</g>
			</g>
		</g>
	</g>
</g>
</svg>
